<?xml version="1.0" encoding="utf-8"?>
<!-- Generator: Adobe Illustrator 15.0.0, SVG Export Plug-In . SVG Version: 6.00 Build 0)  -->
<!DOCTYPE svg PUBLIC "-//W3C//DTD SVG 1.0//EN" "http://www.w3.org/TR/2001/REC-SVG-20010904/DTD/svg10.dtd">
<svg version="1.0" xmlns="http://www.w3.org/2000/svg" xmlns:xlink="http://www.w3.org/1999/xlink" x="0px" y="0px"
	 width="646.182px" height="644.877px" viewBox="0 0 646.182 644.877" enable-background="new 0 0 646.182 644.877"
	 xml:space="preserve">
<g id="zzz" xmlns:dc="http://purl.org/dc/elements/1.1/" xmlns:cc="http://creativecommons.org/ns#" xmlns:rdf="http://www.w3.org/1999/02/22-rdf-syntax-ns#" xmlns:inkscape="http://www.inkscape.org/namespaces/inkscape" xmlns:svg="http://www.w3.org/2000/svg" xmlns:sodipodi="http://sodipodi.sourceforge.net/DTD/sodipodi-0.dtd" inkscape:version="0.48.2 r9819" sodipodi:docname="oldclocks.svg">
	
		<sodipodi:namedview  id="base" inkscape:object-nodes="true" fit-margin-left="0" fit-margin-top="0" inkscape:cy="95.810357" inkscape:cx="600.59855" inkscape:zoom="0.4449172" pagecolor="#ffffff" showgrid="false" bordercolor="#666666" borderopacity="1.0" inkscape:object-paths="true" inkscape:bbox-nodes="true" inkscape:bbox-paths="true" inkscape:snap-bbox="true" inkscape:window-y="-8" inkscape:window-x="-8" inkscape:window-height="988" inkscape:window-width="1680" inkscape:current-layer="layer1" inkscape:document-units="px" inkscape:pageshadow="2" inkscape:pageopacity="0.0" inkscape:snap-object-midpoints="true" inkscape:snap-smooth-nodes="true" inkscape:snap-intersection-paths="true" inkscape:snap-bbox-midpoints="true" inkscape:snap-bbox-edge-midpoints="true" inkscape:window-maximized="1" fit-margin-bottom="0" fit-margin-right="0" inkscape:snap-global="false" inkscape:snap-center="true" inkscape:snap-midpoints="true">
		</sodipodi:namedview>
	
		<radialGradient id="path555_1_" cx="56.4739" cy="542.1707" r="151.7981" gradientTransform="matrix(0.9897 0 0 0.9948 267.1972 -250.8177)" gradientUnits="userSpaceOnUse">
		<stop  offset="0" style="stop-color:#3E3014"/>
		<stop  offset="0.9663" style="stop-color:#3D2511"/>
		<stop  offset="1" style="stop-color:#BE6528"/>
	</radialGradient>
	<path id="path555" inkscape:connector-curvature="0" fill="url(#path555_1_)" d="M473.324,288.535
		c0,83.399-67.264,151.008-150.233,151.008c-82.974,0-150.234-67.607-150.234-151.008c0-83.401,67.262-151.012,150.234-151.012
		C406.06,137.525,473.324,205.133,473.324,288.535z"/>
	
		<radialGradient id="path566_1_" cx="56.4724" cy="542.1707" r="141.4355" gradientTransform="matrix(0.9897 0 0 0.9948 267.1972 -250.8177)" gradientUnits="userSpaceOnUse">
		<stop  offset="0" style="stop-color:#3E3014"/>
		<stop  offset="0.8427" style="stop-color:#7E401B"/>
		<stop  offset="0.8876" style="stop-color:#5D3C15"/>
		<stop  offset="0.9494" style="stop-color:#1D110B"/>
	</radialGradient>
	<path id="path566" inkscape:connector-curvature="0" fill="url(#path566_1_)" d="M463.066,288.535
		c0,77.704-62.668,140.7-139.978,140.7c-77.308,0-139.978-62.996-139.978-140.7c0-77.709,62.67-140.703,139.978-140.703
		C400.398,147.832,463.066,210.826,463.066,288.535z"/>
	
		<linearGradient id="path573_1_" gradientUnits="userSpaceOnUse" x1="-68.8298" y1="543.8152" x2="176.7991" y2="543.8152" gradientTransform="matrix(1 0 0 1 269.103 -255.2822)">
		<stop  offset="0" style="stop-color:#3F3F3F"/>
		<stop  offset="1" style="stop-color:#010101"/>
	</linearGradient>
	<path id="path573" inkscape:connector-curvature="0" fill="url(#path573_1_)" d="M445.902,288.531
		c0,68.182-54.988,123.452-122.813,123.452c-67.83,0-122.815-55.27-122.815-123.452c0-68.178,54.985-123.448,122.815-123.448
		C390.914,165.083,445.902,220.354,445.902,288.531z"/>
	
		<radialGradient id="path575_1_" cx="181.884" cy="234.5369" r="120.3142" gradientTransform="matrix(1 0 0 -1.0052 141.2041 524.2839)" gradientUnits="userSpaceOnUse">
		<stop  offset="0" style="stop-color:#7F3F00"/>
		<stop  offset="1" style="stop-color:#402000"/>
	</radialGradient>
	<path id="path575" inkscape:connector-curvature="0" fill="url(#path575_1_)" d="M443.402,288.535
		c0,66.79-53.863,120.936-120.313,120.936c-66.447,0-120.314-54.146-120.314-120.936c0-66.794,53.867-120.936,120.314-120.936
		C389.539,167.6,443.402,221.741,443.402,288.535z"/>
	
		<linearGradient id="path584_1_" gradientUnits="userSpaceOnUse" x1="53.8533" y1="424.7781" x2="54.1138" y2="660.3787" gradientTransform="matrix(1 0 0 1 269.103 -255.2822)">
		<stop  offset="0" style="stop-color:#FFCC00"/>
		<stop  offset="0.5" style="stop-color:#FFE88C"/>
		<stop  offset="1" style="stop-color:#FFCC00"/>
	</linearGradient>
	<path id="path584" inkscape:connector-curvature="0" fill="url(#path584_1_)" d="M323.103,169.814
		c-65.229,0-118.125,53.151-118.125,118.719c0,65.568,52.896,118.718,118.125,118.718s118.094-53.15,118.094-118.718
		C441.198,222.965,388.333,169.814,323.103,169.814z M321.603,170.939l1.406,2.938c-3.693,0.003-7.365,0.184-10.969,0.531
		l-0.281-2.938C315.002,171.156,318.29,170.981,321.603,170.939z M324.666,170.97c3.309,0.044,6.576,0.186,9.813,0.5l-0.313,2.938
		c-3.634-0.352-7.306-0.53-11.031-0.531L324.666,170.97z M310.01,171.657l0.313,2.938c-3.412,0.382-6.778,0.916-10.094,1.594
		l-0.594-2.906C303.038,172.586,306.506,172.049,310.01,171.657z M336.197,171.657c3.504,0.393,6.972,0.928,10.375,1.625
		l-0.594,2.906c-3.314-0.679-6.682-1.211-10.094-1.594L336.197,171.657z M297.916,173.657l0.625,2.906
		c-3.348,0.738-6.645,1.599-9.875,2.625l-0.875-2.813C291.103,175.324,294.483,174.414,297.916,173.657z M348.291,173.657
		c3.436,0.758,6.811,1.695,10.125,2.75l-0.875,2.781c-3.229-1.027-6.527-1.886-9.875-2.625L348.291,173.657z M323.103,174.939
		c3.697,0,7.332,0.183,10.938,0.531c0.199,0.02,0.396,0.042,0.594,0.063c0.136,0.014,0.271,0.017,0.406,0.031
		c0.251,0.026,0.5,0.065,0.75,0.094c3.369,0.379,6.696,0.893,9.969,1.563c0.565,0.115,1.126,0.251,1.688,0.375
		c3.303,0.729,6.563,1.611,9.75,2.625c0.558,0.177,1.104,0.346,1.656,0.531c3.211,1.076,6.362,2.306,9.438,3.656
		c0.533,0.234,1.066,0.477,1.594,0.719c3.067,1.404,6.056,2.929,8.969,4.594c0.159,0.091,0.312,0.189,0.469,0.281
		c0.343,0.198,0.688,0.39,1.031,0.594c2.905,1.72,5.738,3.565,8.469,5.531c0.475,0.342,0.938,0.683,1.406,1.031
		c2.711,2.016,5.327,4.16,7.844,6.406c0.333,0.3,0.672,0.578,1,0.875c0.098,0.089,0.184,0.191,0.281,0.281
		c2.483,2.284,4.854,4.69,7.125,7.188c0.239,0.261,0.478,0.522,0.719,0.781c0.152,0.17,0.318,0.329,0.469,0.5
		c2.235,2.533,4.339,5.179,6.344,7.906c0.347,0.469,0.692,0.932,1.031,1.406c4.23,5.941,7.896,12.313,10.938,19.031
		c0.038,0.083,0.087,0.165,0.125,0.25c0.205,0.456,0.395,0.916,0.594,1.375c1.34,3.087,2.558,6.246,3.625,9.469
		c0.183,0.55,0.357,1.103,0.531,1.656c1.009,3.208,1.868,6.488,2.594,9.813c0.085,0.39,0.165,0.772,0.25,1.156
		c0.028,0.136,0.066,0.271,0.094,0.406c0.009,0.043,0.023,0.082,0.031,0.125c0.668,3.302,1.187,6.633,1.563,10.031
		c0.023,0.209,0.041,0.416,0.063,0.625c0.042,0.363,0.091,0.725,0.125,1.094c0.346,3.616,0.531,7.292,0.531,11
		c0,3.718-0.184,7.405-0.531,11.031c-0.017,0.177-0.045,0.354-0.063,0.531c-0.043,0.407-0.08,0.815-0.125,1.219
		c-0.376,3.377-0.898,6.72-1.563,10c-0.118,0.571-0.25,1.149-0.375,1.719c-0.728,3.328-1.583,6.602-2.594,9.813
		c-0.175,0.556-0.349,1.105-0.531,1.656c-1.222,3.682-2.643,7.279-4.219,10.781c-0.042,0.094-0.083,0.188-0.125,0.281
		c-3.291,7.266-7.327,14.121-12,20.469c-2.002,2.721-4.113,5.35-6.344,7.875c-0.386,0.434-0.768,0.854-1.156,1.281
		c-2.276,2.502-4.667,4.9-7.156,7.188c-0.43,0.395-0.846,0.77-1.281,1.156c-2.521,2.248-5.13,4.391-7.844,6.406
		c-0.464,0.346-0.936,0.691-1.406,1.031c-5.919,4.258-12.274,7.939-18.969,11c-0.526,0.242-1.061,0.486-1.594,0.719
		c-3.063,1.344-6.208,2.555-9.406,3.625c-0.553,0.186-1.099,0.355-1.656,0.531c-3.188,1.014-6.447,1.896-9.75,2.625
		c-0.336,0.074-0.668,0.145-1,0.219c-0.23,0.049-0.457,0.109-0.688,0.156c-3.283,0.672-6.62,1.186-10,1.563
		c-0.459,0.051-0.914,0.109-1.375,0.156c-0.115,0.012-0.229,0.021-0.344,0.031c-3.596,0.348-7.22,0.531-10.906,0.531
		c-3.696,0-7.363-0.182-10.969-0.531c-0.196-0.018-0.395-0.041-0.594-0.063c-0.135-0.014-0.271-0.016-0.406-0.031
		c-0.252-0.027-0.503-0.064-0.75-0.094c-3.369-0.379-6.695-0.891-9.969-1.563c-0.032-0.006-0.062-0.023-0.094-0.031
		c-0.532-0.109-1.063-0.227-1.594-0.344c-3.303-0.729-6.563-1.611-9.75-2.625c-0.557-0.178-1.107-0.348-1.656-0.531
		c-3.21-1.076-6.362-2.305-9.438-3.656c-0.438-0.193-0.876-0.371-1.313-0.563c-0.021-0.01-0.041-0.021-0.063-0.031
		c-0.072-0.031-0.146-0.061-0.219-0.094c-6.688-3.061-13.023-6.773-18.938-11.031c-0.471-0.34-0.938-0.684-1.406-1.031
		c-2.713-2.018-5.324-4.156-7.844-6.406c-0.333-0.297-0.672-0.576-1-0.875c-0.098-0.088-0.184-0.191-0.281-0.281
		c-2.482-2.283-4.854-4.689-7.125-7.188c-0.079-0.086-0.169-0.162-0.25-0.25c-0.158-0.174-0.312-0.354-0.469-0.531
		c-0.156-0.166-0.317-0.328-0.469-0.5c-2.229-2.525-4.343-5.154-6.344-7.875c-0.346-0.471-0.695-0.961-1.031-1.438
		c-4.232-5.943-7.926-12.307-10.969-19.031c-0.036-0.08-0.058-0.168-0.094-0.25c-0.205-0.455-0.395-0.916-0.594-1.375
		c-1.34-3.086-2.558-6.246-3.625-9.469c-0.182-0.553-0.355-1.098-0.531-1.656c-1.006-3.202-1.869-6.463-2.594-9.781
		c-0.11-0.519-0.236-1.043-0.344-1.563c-0.007-0.031-0.024-0.062-0.031-0.094c-0.004-0.02,0.004-0.042,0-0.063
		c-0.665-3.291-1.187-6.644-1.563-10.031c-0.04-0.361-0.086-0.728-0.125-1.094c-0.013-0.124-0.019-0.25-0.031-0.375
		c-0.01-0.094-0.021-0.187-0.031-0.281c-0.343-3.606-0.531-7.271-0.531-10.969c0-3.718,0.185-7.404,0.531-11.031
		c0.018-0.168,0.045-0.333,0.063-0.5c0.041-0.408,0.08-0.811,0.125-1.219c0.378-3.397,0.894-6.73,1.563-10.031
		c0.007-0.032,0.025-0.062,0.031-0.094c0.11-0.539,0.227-1.088,0.344-1.625c0.726-3.313,1.588-6.583,2.594-9.781
		c0.017-0.053,0.046-0.103,0.063-0.156c0.164-0.509,0.332-1.034,0.5-1.531h-0.031c1.222-3.682,2.644-7.277,4.219-10.781
		c0.043-0.093,0.083-0.188,0.125-0.281c3.046-6.723,6.734-13.087,10.969-19.031c0.337-0.474,0.688-0.968,1.031-1.438
		c1.998-2.714,4.119-5.322,6.344-7.844c0.391-0.442,0.791-0.876,1.188-1.313c2.273-2.496,4.642-4.903,7.125-7.188
		c0.404-0.371,0.81-0.729,1.219-1.094c0.022-0.02,0.041-0.042,0.063-0.063c2.514-2.24,5.139-4.363,7.844-6.375
		c0.47-0.349,0.932-0.689,1.406-1.031c5.924-4.262,12.27-7.968,18.969-11.031c0.527-0.244,1.063-0.484,1.594-0.719
		c3.064-1.343,6.209-2.554,9.406-3.625c0.554-0.185,1.1-0.354,1.656-0.531c3.188-1.012,6.447-1.896,9.75-2.625
		c0.333-0.073,0.666-0.148,1-0.219c0.188-0.042,0.375-0.085,0.563-0.125c0.043-0.009,0.083-0.022,0.125-0.031
		c3.273-0.669,6.6-1.184,9.969-1.563c0.375-0.042,0.75-0.086,1.125-0.125c0.209-0.021,0.419-0.042,0.625-0.063
		C315.761,175.123,319.418,174.939,323.103,174.939L323.103,174.939z M286.135,176.907l0.875,2.813v0.031
		c-3.232,1.083-6.403,2.298-9.5,3.656l-1.219-2.688C279.5,179.311,282.783,178.029,286.135,176.907L286.135,176.907z
		 M360.072,176.939c3.348,1.12,6.639,2.372,9.844,3.781l-1.188,2.719c-3.107-1.366-6.286-2.6-9.531-3.688L360.072,176.939z
		 M274.697,181.439l1.219,2.656v0.031c-3.31,1.513-6.524,3.156-9.656,4.969l-0.281-3.219
		C268.813,184.28,271.723,182.799,274.697,181.439L274.697,181.439z M371.51,181.439c2.966,1.356,5.861,2.846,8.688,4.438
		l-0.063,1.625l-0.75,1.313c-2.951-1.688-5.954-3.265-9.063-4.688L371.51,181.439z M263.353,187.407l2.781,1.781
		c-3.226,1.873-6.358,3.891-9.375,6.063l-1.719-2.406C257.723,190.914,260.51,189.109,263.353,187.407z M382.916,187.439
		c2.828,1.694,5.583,3.517,8.25,5.438l-1.719,2.406c-2.757-1.985-5.629-3.856-8.563-5.594l0.813-1.406L382.916,187.439
		L382.916,187.439z M253.635,193.876l1.719,2.406c-2.728,2.027-5.372,4.179-7.906,6.438l-1.969-2.188
		C248.098,198.196,250.812,195.972,253.635,193.876z M392.572,193.907c2.822,2.097,5.537,4.318,8.156,6.656l-1.969,2.188
		c-2.539-2.266-5.172-4.404-7.906-6.438L392.572,193.907z M244.166,201.72l1.969,2.188c-2.513,2.311-4.919,4.724-7.219,7.25
		l-2.188-1.969C239.093,206.591,241.581,204.095,244.166,201.72z M402.041,201.72c2.59,2.381,5.07,4.896,7.438,7.5l-2.188,1.969
		c-2.298-2.527-4.706-4.938-7.219-7.25L402.041,201.72z M235.572,210.47l2.188,2c-2.25,2.549-4.386,5.193-6.406,7.938h-0.031
		l-2.375-1.719C231.038,215.846,233.241,213.109,235.572,210.47L235.572,210.47z M410.635,210.501
		c2.33,2.639,4.536,5.376,6.625,8.219l-2.375,1.719c-2.024-2.753-4.182-5.413-6.438-7.969L410.635,210.501z M227.916,220.095
		l2.375,1.75c-2.09,2.934-4.031,5.994-5.844,9.125l-1.844-2.719C224.262,225.464,226.04,222.726,227.916,220.095z M418.291,220.126
		c1.872,2.627,3.626,5.373,5.281,8.156l-1.75,2.813c-1.83-3.172-3.822-6.249-5.938-9.219L418.291,220.126z M221.072,230.907
		l3.313,0.156c-1.873,3.243-3.601,6.566-5.156,10l-2.688-1.188C217.929,236.81,219.436,233.826,221.072,230.907z M425.197,231.064
		c1.608,2.881,3.102,5.82,4.469,8.844l-2.688,1.188c-0.002-0.004-0.029,0.004-0.031,0c-1.512-3.34-3.156-6.591-4.969-9.75
		L425.197,231.064z M215.822,241.47l2.688,1.219c-1.355,3.12-2.576,6.306-3.656,9.563l-2.781-0.906
		C213.184,247.989,214.425,244.685,215.822,241.47z M430.353,241.501c1.398,3.218,2.669,6.515,3.781,9.875l-2.813,0.906
		c-1.079-3.258-2.302-6.442-3.656-9.563L430.353,241.501z M211.541,253.001l2.781,0.906c-1.021,3.244-1.89,6.545-2.625,9.906
		l-2.906-0.594C209.548,259.753,210.487,256.346,211.541,253.001z M434.666,253.032c1.052,3.343,1.964,6.755,2.719,10.219
		l-2.875,0.594c-0.733-3.359-1.605-6.664-2.625-9.906L434.666,253.032z M208.447,264.907l2.875,0.625
		c-0.674,3.326-1.213,6.7-1.594,10.125l-2.906-0.313C207.215,271.812,207.751,268.339,208.447,264.907z M437.76,264.939
		c0.695,3.431,1.203,6.905,1.594,10.438l-2.906,0.313c-0.38-3.425-0.889-6.798-1.563-10.125L437.76,264.939L437.76,264.939z
		 M206.635,277.095l2.906,0.313c-0.341,3.562-0.521,7.163-0.531,10.813l-2.906-1.531
		C206.153,283.459,206.331,280.256,206.635,277.095z M439.541,277.126c0.31,3.233,0.487,6.509,0.531,9.813l-2.906,1.375
		c-0.007-3.67-0.188-7.293-0.531-10.875L439.541,277.126L439.541,277.126z M209.01,288.407c0,0.042,0,0.084,0,0.125
		c0,3.745,0.183,7.441,0.531,11.094l-2.906,0.313c-0.319-3.343-0.495-6.737-0.531-10.156L209.01,288.407z M437.166,288.689
		l2.906,1.531c-0.046,3.28-0.223,6.54-0.531,9.75l-2.906-0.313C436.981,296.046,437.161,292.391,437.166,288.689z M209.728,301.376
		c0.379,3.414,0.924,6.809,1.594,10.125l-2.906,0.594c-0.689-3.411-1.204-6.895-1.594-10.406L209.728,301.376z M436.447,301.407
		l2.906,0.313c-0.391,3.521-0.9,7.017-1.594,10.438l-2.875-0.625C435.556,308.216,436.067,304.822,436.447,301.407z M211.666,313.22
		h0.031c0.734,3.363,1.573,6.661,2.594,9.906l-2.781,0.906c-1.053-3.346-1.963-6.75-2.719-10.218L211.666,313.22L211.666,313.22z
		 M434.478,313.251c0.001-0.002,0.031,0.002,0.031,0l2.875,0.594c-0.757,3.472-1.695,6.87-2.75,10.218l-2.781-0.906
		C432.876,319.91,433.743,316.615,434.478,313.251L434.478,313.251z M214.853,324.782c1.079,3.258,2.302,6.443,3.656,9.563
		l-2.688,1.188c-1.394-3.209-2.672-6.492-3.781-9.844L214.853,324.782z M431.322,324.813l2.781,0.906
		c-1.112,3.359-2.352,6.66-3.75,9.875l-2.688-1.188C429.026,331.28,430.239,328.081,431.322,324.813z M219.197,335.969
		c0.002,0.004,0.029-0.004,0.031,0c1.474,3.254,3.085,6.418,4.844,9.5l-3.25,0.25c-1.542-2.779-2.963-5.619-4.281-8.531
		L219.197,335.969L219.197,335.969z M426.947,336.001l2.688,1.188c-1.349,2.98-2.822,5.879-4.406,8.719l-3.281-0.125
		C423.767,342.614,425.429,339.352,426.947,336.001L426.947,336.001z M224.197,345.688c1.88,3.279,3.911,6.469,6.094,9.531
		l-2.406,1.719c-1.939-2.723-3.761-5.547-5.469-8.438L224.197,345.688L224.197,345.688z M421.728,346.157l1.844,2.688
		c-1.657,2.785-3.438,5.496-5.313,8.125l-2.406-1.719C417.944,352.319,419.915,349.288,421.728,346.157z M231.322,356.594
		c2.028,2.76,4.146,5.439,6.406,8l-2.188,1.969c-2.321-2.629-4.542-5.354-6.625-8.188l2.375-1.75L231.322,356.594L231.322,356.594z
		 M414.853,356.657l2.375,1.75c-2.084,2.832-4.302,5.559-6.625,8.188l-2.188-1.969C410.673,362.071,412.828,359.409,414.853,356.657
		z M238.885,365.876c2.299,2.527,4.706,4.939,7.219,7.25l-1.969,2.219c-2.595-2.385-5.065-4.891-7.438-7.5L238.885,365.876z
		 M407.26,365.907l2.188,1.969c-2.368,2.604-4.848,5.09-7.438,7.469l-1.969-2.188C402.554,370.846,404.961,368.434,407.26,365.907z
		 M247.385,374.313c2.539,2.266,5.204,4.404,7.938,6.438v0.031l-1.719,2.375c-2.828-2.102-5.563-4.313-8.188-6.656L247.385,374.313z
		 M398.76,374.313v0.031l1.938,2.188c-2.62,2.338-5.334,4.561-8.156,6.656l-1.719-2.406
		C393.563,378.745,396.215,376.585,398.76,374.313L398.76,374.313z M256.728,381.782c2.866,2.066,5.819,4.018,8.875,5.813
		l-2.656,1.844c-2.718-1.641-5.368-3.398-7.938-5.25L256.728,381.782z M389.416,381.813l1.719,2.406
		c-2.645,1.904-5.385,3.695-8.188,5.375l-2.813-1.781C383.32,385.96,386.435,383.96,389.416,381.813L389.416,381.813z
		 M265.916,387.751c3.233,1.889,6.544,3.621,9.969,5.188l-1.188,2.688c-3.042-1.391-6.01-2.924-8.906-4.563L265.916,387.751z
		 M379.76,388.063l0.25,3.219c-2.78,1.561-5.617,3.043-8.531,4.375l-1.219-2.688C373.518,391.481,376.674,389.843,379.76,388.063z
		 M277.447,393.657c3.104,1.365,6.29,2.57,9.531,3.656l-0.875,2.813c-3.348-1.119-6.638-2.371-9.844-3.781L277.447,393.657z
		 M368.666,393.657l1.219,2.688c-3.209,1.41-6.492,2.693-9.844,3.813l-0.875-2.813v-0.031
		C362.399,396.231,365.569,395.016,368.666,393.657L368.666,393.657z M288.635,397.876c3.229,1.027,6.529,1.887,9.875,2.625
		c0.002,0.002-0.002,0.031,0,0.031l-0.625,2.875c-3.436-0.758-6.81-1.695-10.125-2.75L288.635,397.876L288.635,397.876z
		 M357.51,397.876l0.875,2.813c-3.322,1.057-6.713,1.961-10.156,2.719l-0.594-2.875C350.983,399.794,354.278,398.903,357.51,397.876
		z M300.197,400.907c3.314,0.68,6.682,1.18,10.094,1.563l-0.313,2.938c-3.503-0.393-6.972-0.928-10.375-1.625L300.197,400.907z
		 M345.947,400.907l0.594,2.875c-3.403,0.697-6.871,1.234-10.375,1.625l-0.313-2.938
		C339.266,402.089,342.633,401.585,345.947,400.907z M312.01,402.657c3.513,0.342,7.09,0.52,10.688,0.531l-1.531,2.938
		c-3.188-0.051-6.348-0.227-9.469-0.531L312.01,402.657z M334.135,402.657l0.313,2.938c-3.288,0.32-6.606,0.492-9.969,0.531
		l-1.375-2.938C326.829,403.188,330.501,403.009,334.135,402.657z"/>
	<linearGradient id="path613_1_" gradientUnits="userSpaceOnUse" x1="214.0095" y1="288.532" x2="432.1658" y2="288.532">
		<stop  offset="0" style="stop-color:#FFCC00"/>
		<stop  offset="0.5" style="stop-color:#FFE88C"/>
		<stop  offset="1" style="stop-color:#FFCC00"/>
	</linearGradient>
	<path id="path613" inkscape:connector-curvature="0" fill="url(#path613_1_)" d="M313.76,178.876v0.25h1.313l2.844,13.625
		l-2.719,12.719h-1.313v0.25h3.094v-0.25h-1.313l2.5-11.594l2.375,11.594h-1.313v0.25h4.094v-0.25h-1.281l-3.156-15l2.438-11.344
		h1.313v-0.25h-3.156v0.25h1.313l-2.156,10.125l-2.125-10.125h1.313v-0.25H313.76z M323.447,178.876v0.25h1.281v26.344h-1.281v0.25
		h4.063v-0.25h-1.313v-26.344h1.313v-0.25H323.447z M328.635,178.876v0.25h1.281v26.344h-1.281v0.25h4.063v-0.25h-1.281v-26.344
		h1.281v-0.25H328.635z M274.635,190.064l-3.531,2.031l0.125,0.219l1.125-0.656l13.094,22.813l-1.125,0.625l0.125,0.219l3.531-2.031
		l-0.125-0.219l-1.125,0.656l-13.094-22.813l1.125-0.625L274.635,190.064z M270.385,192.501l-2.719,1.594l0.125,0.219l1.156-0.656
		l3.125,9.813l-6.844-7.688l1.125-0.625l-0.125-0.219l-3.531,2.031l0.125,0.219l1.156-0.656l9.25,10.344l3.969,12.375l-1.156,0.656
		l0.125,0.219l2.688-1.563l-0.125-0.188l-1.125,0.656l-3.625-11.313l7.844,8.844l-1.125,0.656l0.125,0.219l3.531-2.063l-0.125-0.219
		l-1.125,0.656l-10.188-11.375l-3.531-11.063l1.125-0.656L270.385,192.501z M376.166,192.72l-0.125,0.219l1.094,0.656
		l-13.094,22.781l-1.094-0.625l-0.125,0.219l3.5,2.031l0.125-0.219l-1.125-0.656l13.094-22.813l1.125,0.656l0.125-0.219
		L376.166,192.72z M230.978,229.595l-1.563,2.75l0.219,0.125l0.656-1.156l7.625,6.938l-9.781-3.219l0.656-1.125l-0.219-0.125
		l-2.031,3.531l0.219,0.125l0.656-1.125l13.156,4.313l9.594,8.719l-0.656,1.156l0.219,0.125l1.531-2.688l-0.188-0.125l-0.656,1.125
		l-8.75-7.969l11.188,3.719l-0.656,1.156l0.219,0.125l2.031-3.594l-0.219-0.125l-0.625,1.156l-14.5-4.75l-8.563-7.813l0.656-1.125
		L230.978,229.595z M415.416,229.97l-0.219,0.125l0.625,1.125l-22.688,13.156l-0.625-1.125l-0.219,0.125l2.031,3.531l0.219-0.125
		l-0.656-1.125l22.688-13.156l0.656,1.125l0.219-0.125L415.416,229.97z M418.01,234.501l-0.219,0.125l0.625,1.094l-22.688,13.188
		l-0.625-1.125l-0.219,0.125l2.031,3.531l0.219-0.125l-0.656-1.125l22.688-13.188l0.656,1.156l0.219-0.125L418.01,234.501z
		 M240.447,280.47v1.281l-14.906,3.188l-11.281-2.438v-1.313h-0.25v3.125h0.25v-1.313l10.063,2.188l-10.063,2.125v-1.313h-0.25
		v4.094h0.25v-1.313l13.531-2.875l12.656,2.719v1.313h0.25v-3.094h-0.25v1.313l-11.531-2.5l11.531-2.406v1.313h0.25v-4.094H240.447z
		 M405.478,281.595v4.094h0.25v-1.313h26.188v1.313h0.25v-4.094h-0.25v1.281h-26.188v-1.281H405.478z M405.478,286.814v4.094h0.25
		v-1.313h26.188v1.313h0.25v-4.094h-0.25v1.281h-26.188v-1.281H405.478z M214.01,290.845v4.094h0.25v-1.281h26.188v1.281h0.25
		v-4.094h-0.25v1.313H214.26v-1.313H214.01z M405.478,292.032v4.094h0.25v-1.313h26.188v1.313h0.25v-4.094h-0.25v1.313h-26.188
		v-1.313H405.478z M245.416,318.97l-0.188,0.125l0.625,1.125l-22.688,13.156l-0.625-1.125l-0.219,0.125l2.031,3.531l0.188-0.125
		l-0.625-1.125l22.688-13.156l0.625,1.125l0.219-0.125L245.416,318.97z M248.01,323.469l-0.188,0.125l0.625,1.125l-22.688,13.188
		l-0.625-1.125l-0.219,0.125l2.031,3.5l0.219-0.094l-0.656-1.125l22.688-13.156l0.656,1.094l0.188-0.125L248.01,323.469
		L248.01,323.469z M399.197,324.251l-2.063,3.5l0.219,0.125l0.656-1.125l22.656,13.406l-0.688,1.125l0.219,0.125l2.094-3.5
		l-0.219-0.125l-0.688,1.094l-22.625-13.375l0.656-1.125L399.197,324.251z M250.635,328.001l-0.219,0.125l0.625,1.125
		l-22.688,13.156l-0.625-1.125l-0.219,0.125l2.031,3.531l0.219-0.125l-0.656-1.094l22.688-13.188l0.656,1.125l0.188-0.125
		L250.635,328.001z M394.635,332.032l-0.219,0.469l21,16.625l-0.625,1.125l0.188,0.125l1.563-2.688l-0.188-0.094l-0.656,1.125
		l-16.375-13l19,8.406l-0.656,1.156l0.219,0.125l2-3.531l-0.188-0.125l-0.656,1.094L394.635,332.032L394.635,332.032z
		 M255.51,336.532l-24.75,10.031l-0.656-1.125l-0.219,0.125l1.563,2.688l0.188-0.125l-0.656-1.125l19.313-7.813l-16.656,12.406
		l-0.656-1.156l-0.219,0.125l2.031,3.531l0.219-0.125l-0.656-1.125l21.438-15.844L255.51,336.532z M273.228,355.219l-0.125,0.219
		l1.125,0.656l-13.094,22.781l-1.125-0.625l-0.125,0.188l3.5,2.063l0.125-0.219l-1.125-0.656l13.125-22.813l1.094,0.656l0.125-0.219
		L273.228,355.219z M277.697,357.813l-0.094,0.219l1.125,0.656l-13.125,22.813l-1.125-0.656l-0.125,0.219l3.531,2.031l0.125-0.219
		l-1.125-0.625l13.094-22.813l1.125,0.625l0.125-0.188L277.697,357.813z M364.541,360.094l-0.438,0.281l9.969,24.875l-1.125,0.656
		l0.125,0.219l2.688-1.563l-0.125-0.188l-1.125,0.656l-7.75-19.406l12.313,16.75l-1.125,0.656l0.125,0.219l3.5-2.063l-0.125-0.188
		l-1.125,0.625L364.541,360.094z M286.197,362.751l-16.438,21.156l-1.125-0.656l-0.125,0.219l2.656,1.531l0.125-0.188l-1.125-0.688
		l12.844-16.438l-8.281,19.094l-1.125-0.656l-0.125,0.219l3.531,2.031l0.094-0.188l-1.125-0.656l10.688-24.5L286.197,362.751
		L286.197,362.751z M315.666,371.344v0.25h1.281v26.344h-1.281v0.25h4.063v-0.25h-1.281v-26.344h1.281v-0.25H315.666z
		 M325.478,371.344l-3.75,26.594h-1.281v0.25h3.063v-0.25h-1.313l2.969-20.719l2.344,20.719h-1.313v0.25h4.031v-0.25h-1.281
		l-2.969-26.594H325.478z"/>
	
		<radialGradient id="ellipse955_1_" cx="106.3259" cy="451.1013" r="8.0808" gradientTransform="matrix(1 0 0 -1.0052 216.7632 741.9797)" gradientUnits="userSpaceOnUse">
		<stop  offset="0" style="stop-color:#FFE991"/>
		<stop  offset="1" style="stop-color:#FFCC00"/>
	</radialGradient>
	<path id="ellipse955" inkscape:connector-curvature="0" fill="url(#ellipse955_1_)" d="M331.17,288.534
		c0,4.486-3.617,8.123-8.081,8.123c-4.463,0-8.08-3.637-8.08-8.123c0-4.485,3.617-8.123,8.08-8.123
		C327.552,280.411,331.17,284.049,331.17,288.534z"/>
	<path id="ellipse957" inkscape:connector-curvature="0" fill="#22140C" d="M324.56,288.534c0,0.815-0.659,1.477-1.472,1.477
		c-0.812,0-1.471-0.661-1.471-1.477c0-0.814,0.659-1.476,1.471-1.476C323.901,287.059,324.56,287.72,324.56,288.534z"/>
	<g id="grid">
		<path fill="#FFCC00" d="M322.882,216.43c-15.008,0-27.219,12.21-27.219,27.219c0,15.009,12.21,27.219,27.219,27.219
			c15.009,0,27.218-12.21,27.218-27.219C350.1,228.64,337.891,216.43,322.882,216.43z M336.989,224.502l1.847-2.542
			c0.681,0.503,1.337,1.038,1.968,1.6l-2.103,2.336C338.152,225.405,337.581,224.94,336.989,224.502z M336.76,224.339
			c-0.596-0.43-1.213-0.833-1.849-1.208l1.571-2.722c0.731,0.429,1.44,0.892,2.126,1.387L336.76,224.339z M322.882,267.162
			c-4.206,0-8.155-1.115-11.574-3.058l3.527-6.11c2.381,1.341,5.125,2.109,8.047,2.109c2.968,0,5.751-0.793,8.159-2.174l3.527,6.11
			C331.123,266.022,327.135,267.162,322.882,267.162z M322.882,259.823c-8.918,0-16.175-7.256-16.175-16.175
			s7.256-16.175,16.175-16.175s16.175,7.256,16.175,16.175S331.802,259.823,322.882,259.823z M299.368,243.648
			c0-4.242,1.135-8.222,3.109-11.662l6.11,3.528c-1.372,2.401-2.16,5.177-2.16,8.134c0,2.958,0.789,5.733,2.16,8.134l-6.11,3.528
			C300.504,251.871,299.368,247.891,299.368,243.648z M322.882,227.193c-2.922,0-5.666,0.769-8.047,2.11l-3.527-6.11
			c3.419-1.942,7.368-3.058,11.574-3.058c4.251,0,8.24,1.14,11.686,3.123l-3.528,6.109
			C328.634,227.987,325.849,227.193,322.882,227.193z M334.669,222.992c-0.638-0.365-1.293-0.701-1.966-1.007l1.278-2.871
			c0.773,0.351,1.526,0.737,2.259,1.157L334.669,222.992z M332.448,221.869c-0.672-0.296-1.359-0.561-2.061-0.795l0.971-2.99
			c0.808,0.268,1.597,0.572,2.368,0.914L332.448,221.869z M330.121,220.984c-0.698-0.224-1.41-0.414-2.135-0.572l0.653-3.076
			c0.833,0.182,1.651,0.4,2.453,0.658L330.121,220.984z M327.713,220.349c-0.715-0.149-1.444-0.261-2.183-0.344l0.328-3.126
			c0.849,0.094,1.687,0.224,2.508,0.395L327.713,220.349z M325.252,219.973c-0.668-0.066-1.346-0.1-2.027-0.109v-3.145
			c0.794,0.01,1.58,0.049,2.356,0.127L325.252,219.973z M322.583,219.862c-0.682,0.008-1.359,0.042-2.026,0.108l-0.329-3.127
			c0.776-0.076,1.563-0.116,2.356-0.125L322.583,219.862z M320.277,220c-0.738,0.081-1.467,0.192-2.185,0.338l-0.654-3.075
			c0.824-0.17,1.662-0.299,2.511-0.391L320.277,220z M317.82,220.402c-0.725,0.158-1.438,0.347-2.137,0.569l-0.972-2.99
			c0.803-0.255,1.622-0.473,2.455-0.653L317.82,220.402z M315.418,221.061c-0.703,0.233-1.393,0.496-2.064,0.792l-1.279-2.871
			c0.773-0.34,1.564-0.644,2.372-0.91L315.418,221.061z M313.098,221.968c-0.674,0.305-1.331,0.64-1.969,1.004l-1.572-2.721
			c0.733-0.419,1.488-0.805,2.262-1.155L313.098,221.968z M310.885,223.113c-0.637,0.374-1.254,0.775-1.853,1.206l-1.847-2.542
			c0.687-0.494,1.396-0.957,2.128-1.385L310.885,223.113z M308.804,224.481c-0.593,0.438-1.166,0.902-1.716,1.392l-2.104-2.335
			c0.632-0.563,1.29-1.097,1.974-1.6L308.804,224.481z M311.065,223.333l3.528,6.11c-2.414,1.415-4.438,3.424-5.866,5.828
			l-6.11-3.527C304.666,228.269,307.581,225.367,311.065,223.333z M303.732,229.546l-2.542-1.847
			c0.503-0.682,1.038-1.34,1.602-1.971l2.335,2.102C304.637,228.38,304.171,228.952,303.732,229.546z M303.57,229.774
			c-0.431,0.598-0.834,1.215-1.209,1.852l-2.722-1.571c0.43-0.732,0.893-1.442,1.388-2.127L303.57,229.774z M302.221,231.868
			c-0.365,0.639-0.702,1.295-1.008,1.969l-2.871-1.278c0.351-0.774,0.737-1.529,1.158-2.262L302.221,231.868z M301.098,234.093
			c-0.296,0.672-0.562,1.361-0.795,2.064l-2.99-0.971c0.269-0.808,0.573-1.599,0.913-2.372L301.098,234.093z M300.213,236.423
			c-0.223,0.699-0.413,1.413-0.571,2.138l-3.076-0.653c0.182-0.833,0.4-1.652,0.657-2.455L300.213,236.423z M299.578,238.833
			c-0.148,0.718-0.26,1.448-0.342,2.187l-3.127-0.329c0.093-0.85,0.223-1.688,0.393-2.511L299.578,238.833z M299.205,241.299
			c-0.072,0.727-0.109,1.464-0.114,2.209l-3.144,0c0.005-0.856,0.048-1.703,0.131-2.538L299.205,241.299z M299.091,243.788
			c0.005,0.745,0.042,1.483,0.114,2.21l-3.127,0.329c-0.083-0.835-0.126-1.683-0.131-2.539L299.091,243.788L299.091,243.788z
			 M299.237,246.277c0.082,0.739,0.193,1.469,0.342,2.187l-3.076,0.653c-0.17-0.823-0.3-1.662-0.394-2.511L299.237,246.277z
			 M299.641,248.737c0.159,0.725,0.349,1.438,0.572,2.137l-2.99,0.972c-0.257-0.803-0.475-1.623-0.657-2.455L299.641,248.737z
			 M300.303,251.139c0.234,0.703,0.499,1.392,0.794,2.064l-2.872,1.278c-0.34-0.772-0.645-1.563-0.913-2.371L300.303,251.139z
			 M301.213,253.459c0.307,0.674,0.643,1.331,1.008,1.969l-2.722,1.571c-0.42-0.733-0.807-1.487-1.158-2.261L301.213,253.459z
			 M302.361,255.671c0.375,0.637,0.778,1.255,1.208,1.852l-2.542,1.847c-0.495-0.686-0.958-1.396-1.388-2.127L302.361,255.671z
			 M303.732,257.751c0.439,0.593,0.905,1.166,1.396,1.715l-2.335,2.103c-0.564-0.631-1.099-1.289-1.602-1.971L303.732,257.751z
			 M302.617,255.553l6.109-3.527c1.429,2.405,3.453,4.414,5.866,5.829l-3.528,6.109C307.581,261.93,304.666,259.028,302.617,255.553
			z M308.804,262.816l-1.846,2.542c-0.684-0.502-1.341-1.036-1.974-1.599l2.104-2.335
			C307.638,261.914,308.211,262.379,308.804,262.816z M309.033,262.979c0.598,0.429,1.215,0.832,1.853,1.205l-1.571,2.722
			c-0.732-0.429-1.442-0.891-2.128-1.385L309.033,262.979z M311.129,264.324c0.638,0.364,1.295,0.7,1.969,1.005l-1.279,2.871
			c-0.774-0.351-1.528-0.735-2.262-1.155L311.129,264.324z M313.353,265.445c0.672,0.295,1.361,0.559,2.064,0.792l-0.971,2.99
			c-0.809-0.268-1.599-0.571-2.372-0.91L313.353,265.445z M315.683,266.327c0.698,0.222,1.411,0.411,2.137,0.568l-0.654,3.076
			c-0.833-0.181-1.652-0.398-2.455-0.654L315.683,266.327z M318.092,266.958c0.718,0.147,1.447,0.258,2.185,0.339l-0.328,3.126
			c-0.848-0.091-1.687-0.22-2.51-0.39L318.092,266.958z M320.556,267.327c0.668,0.065,1.345,0.1,2.027,0.108v3.145
			c-0.793-0.009-1.58-0.049-2.356-0.125L320.556,267.327z M323.225,267.434c0.683-0.009,1.359-0.043,2.027-0.11l0.329,3.128
			c-0.776,0.078-1.563,0.116-2.356,0.126V267.434z M325.53,267.292c0.738-0.082,1.468-0.194,2.184-0.343l0.653,3.076
			c-0.822,0.171-1.66,0.301-2.508,0.395L325.53,267.292z M327.986,266.885c0.725-0.159,1.437-0.35,2.135-0.573l0.972,2.991
			c-0.802,0.256-1.619,0.475-2.452,0.658L327.986,266.885z M330.387,266.223c0.702-0.234,1.39-0.499,2.061-0.795l1.278,2.872
			c-0.771,0.341-1.561,0.646-2.368,0.914L330.387,266.223z M332.704,265.313c0.673-0.306,1.327-0.643,1.965-1.008l1.571,2.722
			c-0.732,0.42-1.485,0.806-2.259,1.157L332.704,265.313z M334.911,264.165c0.636-0.374,1.253-0.777,1.849-1.208l1.848,2.542
			c-0.685,0.494-1.394,0.958-2.125,1.387L334.911,264.165z M336.989,262.795c0.592-0.438,1.163-0.903,1.712-1.393l2.104,2.335
			c-0.631,0.563-1.287,1.098-1.969,1.6L336.989,262.795z M334.809,263.9l-3.527-6.109c4.818-2.874,8.054-8.136,8.054-14.142
			s-3.235-11.269-8.054-14.142l3.527-6.109c3.457,2.043,6.346,4.945,8.375,8.411l-6.105,3.524l0.141,0.243l6.104-3.524
			c1.95,3.425,3.071,7.381,3.071,11.597s-1.121,8.172-3.071,11.598l-6.104-3.524l-0.14,0.242l6.104,3.525
			C341.155,258.955,338.266,261.857,334.809,263.9z M346.188,238.843l3.075-0.654c0.17,0.823,0.299,1.66,0.393,2.507l-3.128,0.329
			C346.446,240.287,346.335,239.558,346.188,238.843z M346.124,238.57c-0.158-0.724-0.348-1.436-0.568-2.134l2.99-0.971
			c0.256,0.801,0.474,1.619,0.654,2.452L346.124,238.57z M345.465,236.17c-0.232-0.702-0.496-1.389-0.792-2.06l2.873-1.279
			c0.34,0.771,0.643,1.562,0.909,2.368L345.465,236.17z M344.557,233.854c-0.301-0.665-0.632-1.313-0.991-1.943l0.009-0.005
			l-0.014-0.022l2.713-1.567c0.419,0.732,0.805,1.485,1.154,2.259L344.557,233.854z M343.414,231.646
			c-0.374-0.636-0.776-1.253-1.205-1.85l2.543-1.847c0.493,0.685,0.956,1.394,1.384,2.125L343.414,231.646z M342.046,229.567
			c-0.436-0.592-0.9-1.164-1.389-1.714l2.335-2.103c0.562,0.631,1.095,1.288,1.598,1.97L342.046,229.567z M342.047,257.729
			l2.543,1.847c-0.502,0.682-1.035,1.338-1.597,1.97l-2.336-2.103C341.145,258.894,341.61,258.323,342.047,257.729z M342.21,257.501
			c0.429-0.597,0.831-1.214,1.204-1.85l2.722,1.572c-0.428,0.731-0.891,1.439-1.384,2.125L342.21,257.501z M343.563,255.413
			l0.012-0.022l-0.008-0.004c0.358-0.631,0.689-1.279,0.991-1.944l2.872,1.278c-0.351,0.773-0.735,1.527-1.154,2.259
			L343.563,255.413z M344.673,253.187c0.296-0.671,0.56-1.359,0.793-2.061l2.99,0.972c-0.268,0.807-0.57,1.597-0.91,2.368
			L344.673,253.187z M345.555,250.861c0.222-0.697,0.411-1.41,0.568-2.133l3.076,0.654c-0.181,0.832-0.398,1.649-0.654,2.451
			L345.555,250.861z M346.188,248.453c0.146-0.716,0.258-1.444,0.34-2.182l3.128,0.329c-0.093,0.848-0.223,1.685-0.393,2.507
			L346.188,248.453z M346.559,245.993c0.07-0.726,0.108-1.461,0.112-2.205h3.146c-0.005,0.854-0.048,1.7-0.13,2.534L346.559,245.993
			z M346.672,243.508c-0.004-0.744-0.042-1.479-0.112-2.204l3.128-0.329c0.082,0.834,0.125,1.679,0.13,2.533H346.672z
			 M342.807,225.539l-2.336,2.103c-0.495-0.544-1.018-1.065-1.56-1.562l2.103-2.335
			C341.638,224.314,342.238,224.913,342.807,225.539z M304.774,223.722l2.103,2.335c-0.544,0.497-1.066,1.018-1.564,1.563
			l-2.335-2.103C303.547,224.891,304.146,224.292,304.774,223.722z M302.977,261.78l2.335-2.103
			c0.498,0.545,1.019,1.066,1.564,1.563l-2.103,2.335C304.146,263.006,303.547,262.406,302.977,261.78z M341.014,263.552
			l-2.103-2.336c0.544-0.496,1.064-1.017,1.56-1.562l2.336,2.104C342.238,262.384,341.639,262.982,341.014,263.552z"/>
		<path fill="#FFCC00" d="M341.207,244.316c-0.007,0.681,0,1.266,0.027,1.565c0.023,0.211,0.046,0.313,0.23,0.361
			c0.087,0.021,0.329,0.041,0.381,0.041c0.022,0,0.052,0.027,0.052,0.055c0,0.034-0.029,0.047-0.099,0.047
			c-0.432,0-0.8-0.021-0.829-0.021c-0.028,0-0.512,0.021-0.882,0.021c-0.063,0-0.098-0.013-0.098-0.047
			c0-0.028,0.024-0.055,0.046-0.055c0.068,0,0.352-0.02,0.461-0.047c0.19-0.041,0.231-0.143,0.242-0.354
			c0.017-0.299,0.017-0.884,0.017-1.565v-1.191c0-0.367,0-0.66,0-1.034c0-0.136-0.011-0.211-0.104-0.211
			c-0.109,0-0.513,0.245-0.657,0.327c-0.028,0.021-0.046,0.027-0.068,0.027c-0.018,0-0.041-0.034-0.041-0.061
			c0-0.021,0.018-0.048,0.041-0.068l1.11-0.877c0.053-0.041,0.099-0.082,0.14-0.082c0.047,0,0.063,0.075,0.063,0.143
			c0,0.054-0.023,0.729-0.028,1.77L341.207,244.316z"/>
		<path fill="#FFCC00" d="M343.551,242.738c0.732,0.129,1.797,0.653,1.797,1.865c0,0.877-0.563,1.878-1.728,1.878
			c-0.174,0-0.387-0.027-0.53-0.122c-0.098-0.062-0.108-0.123-0.108-0.191c0-0.231-0.007-0.64,0.022-0.857
			c0.011-0.068,0.028-0.123,0.052-0.123c0.035,0,0.046,0.034,0.046,0.116c0,0.728,0.369,0.878,0.79,0.878
			c0.483,0,1.014-0.381,1.014-1.32c0-1.096-1.02-1.627-1.464-1.654c-0.115-0.006-0.156-0.047-0.148-0.122l0.132-1.735
			c0.006-0.068,0.046-0.089,0.109-0.089h1.354c0.162,0,0.266-0.014,0.334-0.027c0.069-0.007,0.104-0.021,0.122-0.021
			c0.022,0,0.04,0.014,0.04,0.068c0,0.061-0.018,0.36-0.075,0.857c-0.006,0.034-0.023,0.075-0.046,0.075s-0.035-0.041-0.035-0.088
			c0-0.258-0.052-0.436-0.507-0.436h-1.088L343.551,242.738z"/>
		<path fill="#FFCC00" d="M321.43,263.617c-0.109-0.027-0.15-0.041-0.15-0.088c0-0.048,0.059-0.068,0.133-0.082
			c0.282-0.062,0.916-0.388,0.916-1.185c0-0.286-0.15-0.919-0.83-0.919c-0.42,0-0.726,0.279-0.726,0.803
			c0,0.068-0.023,0.082-0.041,0.082s-0.035-0.014-0.041-0.075c-0.023-0.218-0.041-0.524-0.041-0.681
			c0-0.062,0.007-0.089,0.076-0.143c0.179-0.102,0.501-0.232,0.934-0.232c0.939,0,1.141,0.681,1.141,1.021
			c0,0.681-0.593,1.13-0.772,1.226v0.034c0.363,0.102,0.951,0.517,0.951,1.307c0,0.953-0.697,1.75-1.723,1.75
			c-0.237,0-0.582-0.082-0.703-0.164c-0.081-0.061-0.092-0.108-0.092-0.19c0-0.32,0.023-0.701,0.041-0.851
			c0.006-0.068,0.018-0.103,0.046-0.103c0.029,0,0.035,0.021,0.041,0.096c0.041,0.524,0.259,0.919,0.864,0.919
			c0.582,0,1.043-0.395,1.043-1.205C322.496,264.026,321.804,263.706,321.43,263.617z"/>
		<path fill="#FFCC00" d="M325.053,261.098c1.055,0,1.36,1.62,1.36,2.512c0,1.566-0.513,2.824-1.452,2.824
			c-0.898,0-1.354-1.293-1.354-2.511C323.608,262.317,324.132,261.098,325.053,261.098z M325.076,266.183
			c0.52,0,0.871-0.939,0.871-2.28c0-1.293-0.358-2.553-1.009-2.553c-0.536,0-0.864,0.913-0.864,2.294
			C324.074,264.836,324.368,266.183,325.076,266.183z"/>
		<path fill="#FFCC00" d="M302.281,244.078h0.438c0.156,0,0.213-0.075,0.236-0.075c0.029,0,0.029,0.048,0.029,0.082
			c0,0.034-0.029,0.19-0.052,0.272c-0.029,0.068-0.052,0.088-0.122,0.088h-0.529c0,0.225-0.011,0.749,0.011,1.048
			c0.017,0.204,0.063,0.32,0.248,0.374c0.081,0.021,0.197,0.027,0.254,0.027c0.029,0,0.051,0.027,0.051,0.055
			c0,0.034-0.028,0.048-0.091,0.048c-0.318,0-0.686-0.021-0.727-0.021c-0.04,0-0.351,0.021-0.668,0.021
			c-0.063,0-0.092-0.014-0.092-0.048c0-0.027,0.017-0.055,0.046-0.055c0.052,0,0.178-0.006,0.271-0.02
			c0.19-0.034,0.23-0.177,0.248-0.381c0.023-0.3,0.012-0.824,0.012-1.048h-1.757c-0.07,0-0.121-0.02-0.121-0.082
			c0-0.055,0.028-0.109,0.051-0.143c0.035-0.048,1.908-3.043,2.091-3.343c0.046-0.074,0.082-0.122,0.121-0.122
			c0.042,0,0.058,0.048,0.058,0.116c0,0.102-0.005,0.647-0.005,1.021V244.078L302.281,244.078z M301.843,241.669h-0.012
			c-0.086,0.177-1.354,2.239-1.463,2.409h1.475V241.669L301.843,241.669z"/>
		<path fill="#FFCC00" d="M304.187,242.349c0.732,0.129,1.797,0.653,1.797,1.865c0,0.878-0.564,1.878-1.728,1.878
			c-0.174,0-0.387-0.027-0.531-0.122c-0.098-0.062-0.109-0.123-0.109-0.191c0-0.231-0.005-0.64,0.023-0.857
			c0.012-0.068,0.029-0.123,0.052-0.123c0.035,0,0.046,0.034,0.046,0.116c0,0.729,0.368,0.878,0.789,0.878
			c0.484,0,1.015-0.381,1.015-1.32c0-1.096-1.02-1.627-1.464-1.654c-0.115-0.007-0.155-0.047-0.149-0.123l0.132-1.735
			c0.007-0.068,0.046-0.088,0.109-0.088h1.354c0.161,0,0.265-0.014,0.334-0.027c0.069-0.006,0.104-0.021,0.121-0.021
			c0.023,0,0.041,0.014,0.041,0.068c0,0.062-0.018,0.361-0.076,0.858c-0.005,0.034-0.022,0.074-0.046,0.074
			c-0.023,0-0.034-0.04-0.034-0.088c0-0.259-0.052-0.436-0.507-0.436h-1.089L304.187,242.349z"/>
		<path fill="#FFCC00" d="M321.776,223.698c-0.149,0-0.299,0.013-0.432,0.088c-0.018,0.006-0.058,0.027-0.075,0.027
			s-0.024-0.021-0.024-0.055c0-0.034,0.017-0.054,0.053-0.082c0.115-0.095,0.346-0.238,0.667-0.238c0.801,0,1.159,0.776,1.159,1.381
			c0,0.538-0.161,1.001-0.415,1.293c-0.271,0.307-0.571,0.456-0.997,0.456c-0.806,0-1.354-0.721-1.354-1.96
			c0-1.321,0.876-2.756,1.994-3.329c0.052-0.027,0.098-0.048,0.122-0.048c0.023,0,0.045,0.021,0.045,0.062
			c0,0.054-0.051,0.081-0.109,0.122c-0.737,0.483-1.549,1.579-1.549,3.192c0,0.796,0.299,1.702,0.961,1.702
			c0.46,0,0.825-0.436,0.825-1.185C322.646,224.181,322.127,223.698,321.776,223.698z"/>
		<path fill="#FFCC00" d="M325.053,221.234c1.055,0,1.359,1.62,1.359,2.512c0,1.565-0.514,2.825-1.452,2.825
			c-0.899,0-1.354-1.293-1.354-2.512C323.607,222.452,324.132,221.234,325.053,221.234z M325.076,226.319
			c0.52,0,0.87-0.94,0.87-2.28c0-1.293-0.357-2.553-1.008-2.553c-0.536,0-0.864,0.913-0.864,2.294
			C324.074,224.971,324.368,226.319,325.076,226.319z"/>
	</g>
</g>
<g id="secondhandvintage">
	<path id="hand" fill="#FFFFFF" d="M315.802,215.866l4.969,23.023c-1.155,0.5-2.131,1.418-2.671,2.664
		c-1.124,2.599,0.072,5.616,2.669,6.74c0.692,0.299,1.413,0.429,2.121,0.417l1.756,8.139c-0.896,0.43-1.648,1.169-2.074,2.152
		c-0.937,2.166,0.059,4.682,2.226,5.618c2.166,0.938,4.683-0.059,5.619-2.225c0.938-2.167-0.06-4.682-2.227-5.619
		c-0.517-0.224-1.056-0.334-1.586-0.348l-1.758-8.144c1.15-0.5,2.124-1.418,2.663-2.661c1.123-2.599-0.072-5.616-2.671-6.74
		c-0.689-0.298-1.407-0.428-2.111-0.417l-4.969-23.023c-0.071-0.328-0.295-0.584-0.582-0.708c-0.185-0.08-0.396-0.105-0.608-0.059
		C316.03,214.793,315.686,215.326,315.802,215.866z M327.762,258.659c1.454,0.629,2.122,2.318,1.493,3.772
		c-0.629,1.455-2.317,2.123-3.771,1.494c-1.455-0.629-2.124-2.318-1.494-3.772C324.619,258.698,326.307,258.03,327.762,258.659z"/>
	<g id="handnail">
		<g>
			<circle fill="#FF0900" cx="322.944" cy="243.648" r="2.114"/>
		</g>
		<circle fill="#FF0900" cx="322.944" cy="243.648" r="0.854"/>
		<path fill="#FF0900" d="M321.279,242.694c-0.159,0.22-0.215,0.417-0.242,0.684c-0.027,0.264-0.005,0.509,0.081,0.755
			c0.066,0.188,0.229,0.497,0.446,0.555c0.382,0.102,0.034-0.351-0.039-0.522c-0.409-0.788,0.004-1.451,0.367-1.716
			c0.363-0.266,1.06-0.344,0.843-0.503C322.518,241.789,321.687,242.108,321.279,242.694z"/>
		<path fill="#FF0900" d="M324.014,244.281c0.113-0.157,0.154-0.298,0.173-0.488c0.02-0.188,0.003-0.363-0.058-0.539
			c-0.048-0.134-0.164-0.355-0.319-0.396c-0.273-0.073-0.024,0.25,0.027,0.372c0.292,0.563-0.003,1.036-0.262,1.227
			c-0.259,0.19-0.757,0.246-0.602,0.358C323.129,244.927,323.722,244.699,324.014,244.281z"/>
		<path fill="#FF0900" d="M321.908,243.02c-0.113,0.157-0.154,0.298-0.173,0.488c-0.019,0.189-0.004,0.364,0.058,0.54
			c0.047,0.134,0.164,0.355,0.319,0.396c0.272,0.073,0.024-0.25-0.028-0.372c-0.292-0.563,0.003-1.036,0.262-1.227
			c0.259-0.19,0.757-0.246,0.602-0.358C322.794,242.373,322.199,242.601,321.908,243.02z"/>
		<path fill="#FF0900" d="M324.508,244.698c0.163-0.225,0.221-0.426,0.248-0.698c0.025-0.27,0.006-0.52-0.084-0.771
			c-0.066-0.191-0.232-0.508-0.456-0.567c-0.39-0.104-0.034,0.358,0.04,0.533c0.418,0.805-0.004,1.482-0.375,1.753
			c-0.372,0.272-1.083,0.352-0.861,0.513C323.241,245.623,324.092,245.297,324.508,244.698z"/>
	</g>
</g>
<g id="gloss">
	
		<linearGradient id="path602_1_" gradientUnits="userSpaceOnUse" x1="53.7791" y1="581.5427" x2="53.779" y2="434.0209" gradientTransform="matrix(1 0 0 1 269.103 -255.2822)">
		<stop  offset="0" style="stop-color:#FFFFFF;stop-opacity:0"/>
		<stop  offset="1" style="stop-color:#FFFFFF;stop-opacity:0.5"/>
	</linearGradient>
	<path id="path602" inkscape:connector-curvature="0" fill="url(#path602_1_)" d="M433.103,287.328
		c0,31.051-57.829,3.007-114.29,2.229c-53.692-0.743-106.152,27.298-106.152-2.229c0-60.58,49.351-109.691,110.224-109.691
		C383.754,177.636,433.103,226.748,433.103,287.328z"/>
</g>
</svg>
