<?xml version="1.0" encoding="utf-8"?>
<svg version="1.0" xmlns="http://www.w3.org/2000/svg" xmlns:xlink="http://www.w3.org/1999/xlink" viewBox="0 0 1000 1000">

<symbol id="clock" viewBox="78.65 78.65 842.7 842.7">

<circle id="plate" fill="#FFFFAF" cx="500" cy="500" r="421"/>
	
<path id="path" d="M877.242,340.636c-10.262-24.26-22.962-47.658-37.748-69.546c-14.646-21.679-31.467-42.065-49.993-60.592
		c-18.526-18.526-38.913-35.346-60.592-49.992c-21.888-14.787-45.286-27.487-69.546-37.748
		C608.889,101.409,555.271,90.584,500,90.584c-55.27,0-108.887,10.825-159.363,32.175c-24.26,10.261-47.658,22.961-69.545,37.748
		c-21.68,14.646-42.065,31.466-60.592,49.992c-18.527,18.527-35.347,38.913-49.993,60.592
		c-14.787,21.888-27.487,45.286-37.748,69.546C101.409,391.112,90.584,444.729,90.584,500c0,55.27,10.825,108.888,32.175,159.363
		c10.261,24.26,22.961,47.658,37.748,69.546c14.646,21.679,31.466,42.065,49.993,60.591c18.526,18.527,38.912,35.348,60.592,49.993
		c21.887,14.786,45.285,27.487,69.545,37.748C391.114,898.59,444.731,909.416,500,909.416c55.271,0,108.889-10.826,159.363-32.175
		c24.26-10.261,47.658-22.962,69.546-37.748c21.679-14.646,42.065-31.466,60.592-49.993c18.526-18.525,35.347-38.912,49.993-60.591
		c14.786-21.888,27.486-45.286,37.748-69.546c21.35-50.476,32.174-104.094,32.174-159.363
		C909.416,444.729,898.592,391.112,877.242,340.636z M875.422,658.594c-10.211,24.143-22.85,47.428-37.564,69.209
		c-14.576,21.575-31.315,41.863-49.754,60.301c-18.438,18.438-38.726,35.177-60.301,49.753
		c-21.781,14.716-45.066,27.354-69.209,37.565c-50.23,21.245-103.589,32.018-158.594,32.018
		c-55.004,0-108.363-10.772-158.594-32.018c-24.142-10.212-47.428-22.85-69.209-37.565c-21.574-14.576-41.863-31.315-60.301-49.753
		s-35.177-38.726-49.752-60.301c-14.716-21.781-27.354-45.066-37.566-69.209C103.333,608.363,92.561,555.004,92.561,500
		c0-55.005,10.772-108.363,32.018-158.594c10.212-24.143,22.851-47.428,37.566-69.209c14.575-21.575,31.314-41.863,49.752-60.301
		c18.438-18.438,38.727-35.177,60.301-49.753c21.781-14.715,45.067-27.354,69.209-37.565c50.23-21.246,103.59-32.019,158.594-32.019
		c55.005,0,108.363,10.773,158.594,32.019c24.143,10.211,47.428,22.851,69.209,37.565c21.575,14.576,41.863,31.315,60.301,49.753
		c18.438,18.438,35.178,38.726,49.754,60.301c14.715,21.781,27.354,45.066,37.564,69.209C896.668,391.636,907.44,444.995,907.44,500
		C907.44,555.004,896.668,608.363,875.422,658.594z M499.51,797.39c20.227,0,40.438-2.034,60.07-6.047
		c19.136-3.91,37.955-9.745,55.935-17.344c17.655-7.461,34.68-16.695,50.603-27.448c15.771-10.65,30.602-22.884,44.076-36.358
		c13.477-13.477,25.709-28.305,36.359-44.077c10.752-15.923,19.986-32.947,27.447-50.602c7.598-17.979,13.434-36.799,17.344-55.935
		c4.013-19.633,6.047-39.844,6.047-60.071c0-20.228-2.034-40.439-6.047-60.072c-3.91-19.135-9.746-37.954-17.344-55.934
		c-7.461-17.654-16.695-34.68-27.447-50.602c-10.65-15.772-22.885-30.602-36.359-44.077s-28.305-25.708-44.076-36.359
		c-15.924-10.752-32.947-19.987-50.603-27.448c-17.979-7.598-36.798-13.433-55.935-17.344c-19.632-4.012-39.843-6.046-60.07-6.046
		c-20.229,0-40.439,2.034-60.071,6.046c-19.136,3.911-37.954,9.746-55.935,17.344c-17.654,7.461-34.68,16.696-50.602,27.448
		c-15.772,10.651-30.602,22.884-44.077,36.359c-13.476,13.476-25.708,28.305-36.358,44.077
		c-10.753,15.923-19.988,32.948-27.449,50.602c-7.598,17.979-13.433,36.799-17.344,55.934c-4.012,19.633-6.046,39.844-6.046,60.072
		c0,20.227,2.034,40.438,6.046,60.071c3.911,19.136,9.746,37.955,17.344,55.935c7.461,17.653,16.696,34.679,27.449,50.602
		c10.65,15.771,22.883,30.601,36.358,44.077c13.476,13.475,28.306,25.708,44.077,36.358c15.922,10.753,32.947,19.987,50.602,27.448
		c17.98,7.599,36.799,13.434,55.935,17.344C459.071,795.356,479.281,797.39,499.51,797.39z M499.019,745.094h-0.196
		c-32.944-0.089-64.892-6.575-94.953-19.279c-9.066-3.831-18.016-8.273-26.602-13.203l-0.17-0.098l30.28-52.447l0.169,0.098
		c6.428,3.683,13.123,7.002,19.897,9.865c22.6,9.551,46.615,14.438,71.38,14.526l0.194,0.001V745.094z M406.53,339.444l-0.168,0.099
		c-3.539,2.063-7.022,4.249-10.352,6.498c-9.799,6.617-19.012,14.216-27.382,22.586c-8.371,8.371-15.97,17.583-22.587,27.382
		c-2.248,3.329-4.435,6.813-6.498,10.352l-0.098,0.168L287,376.25l0.099-0.169c2.771-4.765,5.71-9.452,8.735-13.931
		c8.781-13.003,18.867-25.23,29.977-36.339c11.109-11.11,23.336-21.196,36.34-29.977c4.48-3.025,9.167-5.964,13.93-8.735l0.17-0.099
		L406.53,339.444z M377.098,286.505l0.17-0.098c8.586-4.93,17.535-9.372,26.602-13.204c30.062-12.704,62.009-19.19,94.953-19.279
		l0.196,0v60.538l-0.194,0c-24.766,0.089-48.78,4.976-71.38,14.527c-6.774,2.862-13.47,6.182-19.897,9.865l-0.169,0.097
		L377.098,286.505z M338.951,407.378l-0.096,0.169c-3.684,6.428-7.004,13.123-9.866,19.897c-9.55,22.599-14.438,46.615-14.526,71.38
		v0.194h-60.539l0.001-0.196c0.089-32.945,6.575-64.892,19.28-94.954c3.83-9.065,8.271-18.015,13.203-26.601l0.097-0.17
		L338.951,407.378z M314.463,500v0.195c0.089,24.764,4.977,48.78,14.526,71.379c2.863,6.774,6.183,13.469,9.866,19.897l0.096,0.169
		l-52.446,30.279l-0.097-0.169c-4.93-8.585-9.373-17.534-13.203-26.601c-12.705-30.063-19.191-62.01-19.28-94.955L253.924,500
		H314.463z M339.446,592.489l0.098,0.168c2.064,3.541,4.25,7.024,6.498,10.353c6.616,9.798,14.216,19.011,22.587,27.381
		c8.37,8.371,17.583,15.971,27.382,22.587c3.328,2.248,6.811,4.435,10.352,6.498l0.168,0.099l-30.279,52.444l-0.17-0.099
		c-4.762-2.771-9.449-5.709-13.93-8.735c-13.003-8.78-25.229-18.866-36.34-29.976c-11.109-11.11-21.195-23.336-29.977-36.34
		c-3.024-4.479-5.963-9.166-8.735-13.932L287,622.768L339.446,592.489z M647.416,757.062c-10.421,5.99-21.283,11.385-32.283,16.033
		c-17.919,7.572-36.676,13.389-55.748,17.287c-19.34,3.951-39.254,5.979-59.189,6.023L500,796.407v-50.331h0.195
		c33.076-0.09,65.152-6.602,95.338-19.357c9.103-3.848,18.09-8.309,26.709-13.258l0.17-0.097l25.173,43.601L647.416,757.062z
		 M712.514,377.097l0.098,0.17c4.931,8.586,9.373,17.536,13.203,26.601c12.705,30.062,19.191,62.009,19.279,94.954l0.001,0.196
		h-60.538v-0.194c-0.09-24.765-4.977-48.78-14.527-71.38c-2.863-6.775-6.182-13.469-9.865-19.897l-0.098-0.169L712.514,377.097z
		 M659.574,406.529l-0.098-0.168c-2.064-3.54-4.25-7.023-6.498-10.353c-6.617-9.799-14.217-19.011-22.588-27.382
		c-8.371-8.371-17.583-15.97-27.381-22.586c-3.328-2.248-6.811-4.434-10.353-6.498l-0.168-0.099l30.279-52.445l0.169,0.099
		c4.764,2.771,9.451,5.709,13.932,8.735c13.004,8.782,25.23,18.867,36.34,29.977s21.195,23.336,29.977,36.339
		c3.025,4.48,5.965,9.168,8.734,13.931l0.1,0.169L659.574,406.529z M684.557,500h60.538l-0.001,0.196
		c-0.088,32.945-6.574,64.892-19.279,94.955c-3.831,9.065-8.273,18.015-13.203,26.601l-0.098,0.169l-52.447-30.279l0.098-0.169
		c3.684-6.428,7.002-13.122,9.865-19.897c9.551-22.6,14.438-46.615,14.527-71.379V500z M712.019,622.768l-0.099,0.169
		c-2.771,4.765-5.709,9.451-8.734,13.932c-8.781,13.003-18.867,25.229-29.977,36.34c-11.111,11.109-23.338,21.195-36.34,29.976
		c-4.48,3.025-9.168,5.965-13.932,8.735l-0.169,0.099l-30.279-52.444l0.168-0.099c3.542-2.063,7.024-4.251,10.353-6.498
		c9.798-6.616,19.01-14.216,27.381-22.587c8.371-8.37,15.971-17.583,22.588-27.381c2.248-3.33,4.435-6.813,6.498-10.353l0.098-0.168
		L712.019,622.768z M621.921,712.513l-0.169,0.098c-8.586,4.93-17.536,9.372-26.602,13.203
		c-30.063,12.704-62.01,19.19-94.955,19.279H500v-60.537l0.195-0.001c24.764-0.089,48.779-4.976,71.379-14.526
		c6.775-2.863,13.469-6.183,19.898-9.865l0.168-0.098L621.921,712.513z M796.406,500.196c-0.045,19.936-2.072,39.85-6.023,59.188
		c-3.898,19.072-9.714,37.829-17.287,55.748c-7.436,17.596-16.64,34.565-27.357,50.435c-10.615,15.721-22.809,30.502-36.238,43.933
		c-13.434,13.432-28.214,25.624-43.934,36.239c-5.492,3.71-11.199,7.288-16.963,10.637l-0.169,0.099l-25.175-43.604l0.168-0.098
		c4.787-2.785,9.494-5.736,13.99-8.773c13.057-8.816,25.332-18.941,36.484-30.096c11.154-11.154,21.279-23.429,30.096-36.484
		c3.039-4.498,5.99-9.205,8.773-13.99l0.098-0.168l43.217,24.95l0.49-0.85l-43.212-24.948l0.097-0.17
		c4.951-8.621,9.412-17.607,13.258-26.71c12.756-30.185,19.268-62.261,19.357-95.337V500h50.332L796.406,500.196z M648.604,242.643
		c5.764,3.348,11.471,6.927,16.963,10.637c15.721,10.616,30.502,22.809,43.934,36.24c13.43,13.431,25.623,28.212,36.238,43.932
		c10.718,15.87,19.922,32.839,27.357,50.435c7.573,17.919,13.389,36.676,17.287,55.749c3.951,19.338,5.979,39.252,6.023,59.188
		l0.002,0.196h-50.332v-0.195c-0.09-33.077-6.602-65.153-19.357-95.337c-3.847-9.103-8.307-18.089-13.258-26.71l-0.097-0.169
		l43.212-24.949l-0.49-0.85l-43.217,24.951l-0.098-0.168c-2.785-4.787-5.736-9.494-8.773-13.991
		c-8.816-13.056-18.941-25.331-30.096-36.484c-11.154-11.154-23.43-21.28-36.484-30.096c-4.498-3.038-9.206-5.989-13.99-8.772
		l-0.168-0.098l25.175-43.604L648.604,242.643z M500,202.611l0.195,0c19.937,0.045,39.85,2.072,59.189,6.024
		c19.072,3.898,37.828,9.714,55.748,17.287c11.001,4.649,21.862,10.043,32.283,16.034l0.169,0.097l-25.173,43.601l-0.17-0.097
		c-8.621-4.951-17.607-9.411-26.709-13.257c-30.185-12.756-62.261-19.269-95.338-19.357l-0.195,0V202.611z M500,253.924l0.195,0
		c32.945,0.089,64.893,6.576,94.955,19.279c9.066,3.832,18.016,8.274,26.602,13.204l0.169,0.098l-30.28,52.446l-0.168-0.097
		c-6.429-3.683-13.123-7.002-19.898-9.865c-22.6-9.551-46.615-14.438-71.379-14.527l-0.195,0V253.924z M571.193,329.893
		c21.923,9.264,41.606,22.53,58.505,39.428c16.898,16.898,30.164,36.583,39.428,58.505c9.591,22.694,14.453,46.812,14.453,71.683
		c0,24.871-4.862,48.989-14.453,71.683c-9.264,21.923-22.529,41.606-39.428,58.505s-36.582,30.163-58.505,39.428
		c-22.694,9.59-46.812,14.453-71.683,14.453s-48.988-4.863-71.684-14.453c-21.922-9.265-41.605-22.529-58.504-39.428
		s-30.164-36.582-39.429-58.505c-9.591-22.694-14.453-46.812-14.453-71.683s4.862-48.989,14.453-71.683
		c9.265-21.923,22.53-41.606,39.429-58.505c16.898-16.898,36.582-30.164,58.504-39.428c22.694-9.591,46.813-14.454,71.684-14.454
		S548.498,320.302,571.193,329.893z M351.604,241.956c10.42-5.99,21.281-11.384,32.283-16.034
		c17.92-7.573,36.676-13.389,55.748-17.287c19.338-3.952,39.252-5.979,59.188-6.024l0.196,0v50.331l-0.194,0
		c-33.078,0.089-65.154,6.602-95.338,19.357c-9.102,3.846-18.088,8.307-26.711,13.257l-0.168,0.097l-25.174-43.601L351.604,241.956z
		 M242.644,350.414c3.349-5.763,6.927-11.47,10.636-16.963c10.617-15.72,22.81-30.501,36.24-43.932
		c13.432-13.431,28.213-25.624,43.932-36.24c5.494-3.709,11.201-7.289,16.964-10.637l0.169-0.098l25.176,43.604l-0.168,0.098
		c-4.785,2.783-9.492,5.734-13.991,8.772c-13.056,8.816-25.331,18.942-36.484,30.096c-11.153,11.154-21.28,23.429-30.097,36.484
		c-3.037,4.499-5.988,9.206-8.771,13.991l-0.098,0.168l-43.605-25.175L242.644,350.414z M202.612,498.822
		c0.046-19.935,2.073-39.849,6.024-59.188c3.897-19.072,9.714-37.828,17.287-55.749c4.648-11.001,10.044-21.862,16.033-32.282
		l0.098-0.17l43.601,25.173l-0.097,0.169c-4.95,8.622-9.411,17.608-13.257,26.71c-12.756,30.184-19.27,62.26-19.357,95.337
		l-0.001,0.195h-50.331V498.822z M241.957,647.415c-5.99-10.419-11.385-21.28-16.034-32.283
		c-7.573-17.92-13.39-36.677-17.287-55.748c-3.951-19.339-5.979-39.253-6.024-59.188V500h50.331l0.001,0.195
		c0.088,33.077,6.602,65.154,19.357,95.337c3.846,9.103,8.307,18.089,13.258,26.71l0.096,0.17l-43.601,25.172L241.957,647.415z
		 M350.415,756.375c-5.761-3.348-11.468-6.926-16.964-10.637c-15.719-10.614-30.5-22.807-43.932-36.239
		c-13.431-13.431-25.623-28.212-36.24-43.933c-3.709-5.492-7.287-11.2-10.636-16.963l-0.099-0.169l43.605-25.175l0.098,0.168
		c2.781,4.783,5.733,9.49,8.771,13.99c8.816,13.055,18.941,25.33,30.097,36.484c11.153,11.153,23.429,21.279,36.484,30.096
		c4.499,3.038,9.206,5.99,13.991,8.772l0.168,0.099l-25.176,43.604L350.415,756.375z M351.604,757.062l-0.17-0.098l25.174-43.601
		l0.168,0.097c8.621,4.95,17.607,9.41,26.711,13.258c30.184,12.756,62.26,19.268,95.338,19.357h0.194v50.331l-0.196-0.001
		c-19.936-0.045-39.849-2.072-59.188-6.023c-19.072-3.898-37.83-9.715-55.748-17.287
		C372.885,768.447,362.024,763.052,351.604,757.062z M479.303,192.079c-0.445-0.098-0.922-0.247-1.43-0.445
		c-0.508-0.197-0.984-0.469-1.43-0.815c-0.444-0.345-0.809-0.778-1.096-1.297c-0.285-0.519-0.428-1.124-0.428-1.816
		c0-0.889,0.174-1.828,0.523-2.816c0.35-0.988,0.746-1.976,1.191-2.965c0.381-0.84,0.85-1.803,1.406-2.891
		c0.555-1.086,1.135-2.211,1.738-3.372c0.604-1.161,1.207-2.309,1.811-3.446c0.604-1.136,1.16-2.174,1.668-3.113
		c1.207,2.62,2.279,4.979,3.217,7.078c0.936,2.101,1.77,4.04,2.501,5.818c0.54,1.285,1.017,2.508,1.43,3.669
		c0.413,1.162,0.62,2.088,0.62,2.779c0,0.692-0.144,1.26-0.43,1.705c-0.285,0.444-0.651,0.791-1.096,1.038
		c-0.445,0.248-0.922,0.433-1.43,0.556c-0.508,0.124-0.984,0.235-1.43,0.333v0.741h14.391h1.048h13.39v-0.741
		c-0.668-0.098-1.414-0.371-2.24-0.815c-0.826-0.445-1.43-1.086-1.811-1.927c-0.254-0.543-0.396-1.482-0.428-2.817
		c-0.033-1.334-0.049-2.717-0.049-4.15v-16.75c0-1.531,0-2.939,0-4.225c0-1.334,0-2.619,0-3.854c0-1.234,0.008-2.457,0.023-3.669
		c0.017-1.21,0.025-2.433,0.025-3.668c0.031-1.136,0.055-2.347,0.07-3.632c0.016-1.285,0.168-2.347,0.453-3.188
		c0.412-1.186,1-1.976,1.764-2.372c0.762-0.395,1.477-0.667,2.144-0.815v-0.741h-12.96h-1.287h-11.15v0.741
		c0.413,0.1,0.875,0.248,1.383,0.445c0.508,0.198,0.977,0.47,1.405,0.815c0.429,0.346,0.794,0.767,1.097,1.26
		c0.301,0.495,0.452,1.087,0.452,1.779c0,0.791-0.223,1.779-0.667,2.965c-0.445,1.186-0.857,2.175-1.239,2.965
		c-0.827,1.631-1.786,3.558-2.882,5.781c-1.096,2.223-2.169,4.274-3.217,6.152c-1.176-2.619-2.176-4.855-3.002-6.708
		c-0.826-1.854-1.637-3.669-2.43-5.448c-0.572-1.285-1.081-2.495-1.525-3.632c-0.445-1.136-0.667-2.05-0.667-2.743
		c0-0.691,0.159-1.26,0.477-1.705s0.698-0.79,1.144-1.038c0.444-0.247,0.937-0.445,1.477-0.593c0.54-0.148,1.018-0.247,1.43-0.296
		v-0.741h-15.533v0.741c0.73,0.346,1.373,0.778,1.93,1.297c0.555,0.519,1.08,1.162,1.572,1.927c0.492,0.767,1,1.693,1.525,2.78
		c0.523,1.087,1.119,2.347,1.787,3.78c0.507,1.088,1.182,2.557,2.024,4.41c0.841,1.854,1.691,3.719,2.549,5.596
		c0.858,1.878,1.628,3.57,2.312,5.077c0.682,1.508,1.119,2.459,1.311,2.854c-0.477,0.89-1.064,2.001-1.764,3.335
		c-0.699,1.334-1.43,2.706-2.191,4.113c-0.763,1.408-1.494,2.768-2.191,4.077c-0.699,1.31-1.287,2.384-1.764,3.224
		c-1.43,2.52-2.828,4.584-4.193,6.189c-1.365,1.606-2.685,2.681-3.955,3.224v0.741h12.627V192.079z M488.547,160.393
		c0.604-1.16,1.239-2.359,1.906-3.595c0.668-1.234,1.326-2.47,1.977-3.706c0.651-1.234,1.247-2.346,1.787-3.335
		c1.398-2.619,2.717-4.731,3.955-6.337c1.111-1.439,2.377-2.448,3.793-3.035c0.513,0.148,0.99,0.342,1.425,0.589
		c0.651,0.371,1.198,0.976,1.644,1.816c0.191,0.346,0.334,0.828,0.43,1.445c0.094,0.619,0.166,1.31,0.213,2.075
		c0.049,0.767,0.072,1.594,0.072,2.483c0,0.889,0,1.779,0,2.667v14.454c0,1.334,0,2.768,0,4.299c0,1.482-0.008,2.928-0.023,4.335
		c-0.017,1.408-0.032,2.706-0.049,3.892c-0.016,1.186-0.023,2.125-0.023,2.816c0,0.791-0.008,1.594-0.023,2.409
		c-0.017,0.815-0.047,1.594-0.096,2.335c-0.047,0.741-0.111,1.384-0.189,1.927c-0.08,0.544-0.199,0.963-0.357,1.26
		c-0.477,0.841-1.057,1.482-1.74,1.927c-0.527,0.343-1.088,0.611-1.68,0.807c-0.467-0.181-0.9-0.462-1.298-0.844
		c-0.54-0.519-1.064-1.186-1.572-2.001c-0.509-0.815-1.024-1.79-1.549-2.928c-0.524-1.136-1.104-2.42-1.739-3.854
		c-0.223-0.542-0.571-1.333-1.048-2.372s-1.009-2.198-1.597-3.483c-0.588-1.284-1.199-2.631-1.834-4.04
		c-0.636-1.408-1.223-2.729-1.764-3.965c-0.54-1.235-1.018-2.298-1.43-3.187c-0.412-0.89-0.683-1.482-0.809-1.779
		C487.404,162.58,487.944,161.555,488.547,160.393z M532.098,192.82H517.66v-0.741c0.793-0.197,1.531-0.519,2.216-0.963
		c0.683-0.445,1.263-1.086,1.739-1.927c0.158-0.296,0.277-0.716,0.357-1.26c0.078-0.543,0.143-1.186,0.189-1.927
		c0.049-0.741,0.08-1.52,0.096-2.335c0.016-0.815,0.023-1.618,0.023-2.409c0-0.691,0.008-1.631,0.024-2.816s0.031-2.483,0.048-3.892
		c0.016-1.408,0.023-2.853,0.023-4.335c0-1.531,0-2.965,0-4.299v-14.454c0-0.889,0-1.778,0-2.667c0-0.89-0.023-1.717-0.071-2.483
		c-0.048-0.765-0.119-1.457-0.214-2.075c-0.096-0.617-0.238-1.099-0.43-1.445c-0.445-0.84-0.992-1.445-1.644-1.816
		s-1.39-0.63-2.216-0.778v-0.741h14.247v0.741c-0.667,0.148-1.382,0.42-2.144,0.815c-0.763,0.396-1.351,1.186-1.764,2.372
		c-0.285,0.841-0.438,1.903-0.452,3.188c-0.017,1.285-0.04,2.496-0.071,3.632c0,1.235-0.008,2.458-0.023,3.668
		c-0.018,1.212-0.025,2.435-0.025,3.669c0,1.235,0,2.52,0,3.854c0,1.286,0,2.694,0,4.225v16.75c0,1.434,0.017,2.816,0.049,4.15
		c0.031,1.334,0.174,2.273,0.428,2.817c0.382,0.841,0.984,1.482,1.812,1.927c0.825,0.444,1.572,0.717,2.239,0.815V192.82z
		 M817.748,481.378c0.691,0,1.631,0.007,2.816,0.024c1.186,0.015,2.482,0.031,3.891,0.047c1.408,0.016,2.854,0.023,4.336,0.023
		c1.531,0,2.965,0,4.299,0h14.453c0.89,0,1.779,0,2.668,0c0.89,0,1.717-0.023,2.484-0.071c0.765-0.048,1.456-0.12,2.074-0.215
		c0.617-0.095,1.1-0.238,1.445-0.429c0.84-0.445,1.445-0.993,1.816-1.644c0.37-0.652,0.63-1.39,0.777-2.216h0.742v14.247h-0.742
		c-0.147-0.667-0.42-1.382-0.814-2.145c-0.396-0.762-1.186-1.351-2.372-1.763c-0.841-0.286-1.903-0.437-3.187-0.453
		c-1.286-0.016-2.496-0.04-3.633-0.071c-1.235,0-2.459-0.008-3.668-0.023c-1.212-0.017-2.436-0.024-3.669-0.024
		c-1.235,0-2.521,0-3.854,0c-1.285,0-2.693,0-4.225,0h-16.75c-1.436,0-2.817,0.016-4.151,0.047
		c-1.334,0.031-2.273,0.174-2.816,0.429c-0.841,0.381-1.482,0.985-1.927,1.811c-0.445,0.826-0.717,1.572-0.816,2.24h-0.74v-14.438
		h0.74c0.197,0.793,0.52,1.532,0.965,2.216c0.443,0.683,1.086,1.263,1.926,1.739c0.297,0.159,0.717,0.278,1.261,0.357
		c0.543,0.079,1.187,0.143,1.927,0.191c0.742,0.048,1.52,0.079,2.335,0.095C816.155,481.369,816.957,481.378,817.748,481.378z
		 M858.809,493.527h0.742v14.247h-0.742c-0.147-0.667-0.42-1.382-0.814-2.144c-0.396-0.763-1.186-1.351-2.372-1.764
		c-0.841-0.285-1.903-0.437-3.187-0.452c-1.286-0.017-2.496-0.04-3.633-0.071c-1.235,0-2.459-0.008-3.668-0.024
		c-1.212-0.017-2.436-0.023-3.669-0.023c-1.235,0-2.521,0-3.854,0c-1.285,0-2.693,0-4.225,0h-16.75
		c-1.436,0-2.817,0.016-4.151,0.048c-1.334,0.031-2.273,0.174-2.816,0.429c-0.841,0.381-1.482,0.983-1.927,1.811
		c-0.445,0.825-0.717,1.572-0.816,2.239h-0.74v-14.438h0.74c0.197,0.793,0.52,1.532,0.965,2.216
		c0.443,0.683,1.086,1.263,1.926,1.739c0.297,0.158,0.717,0.277,1.261,0.357c0.543,0.079,1.187,0.143,1.927,0.19
		c0.742,0.048,1.52,0.079,2.335,0.096c0.815,0.016,1.618,0.024,2.409,0.024c0.691,0,1.631,0.007,2.816,0.023
		s2.482,0.031,3.891,0.048c1.408,0.016,2.854,0.024,4.336,0.024c1.531,0,2.965,0,4.299,0h14.453c0.89,0,1.779,0,2.668,0
		c0.89,0,1.717-0.024,2.484-0.072c0.765-0.047,1.456-0.119,2.074-0.214c0.617-0.096,1.1-0.239,1.445-0.429
		c0.84-0.445,1.445-0.993,1.816-1.644C858.402,495.092,858.661,494.353,858.809,493.527z M858.809,510.156h0.742v14.248h-0.742
		c-0.147-0.668-0.42-1.382-0.814-2.145c-0.396-0.762-1.186-1.351-2.372-1.763c-0.841-0.286-1.903-0.438-3.187-0.453
		c-1.286-0.017-2.496-0.04-3.633-0.071c-1.235,0-2.459-0.008-3.668-0.023c-1.212-0.017-2.436-0.024-3.669-0.024
		c-1.235,0-2.521,0-3.854,0c-1.285,0-2.693,0-4.225,0h-16.75c-1.436,0-2.817,0.017-4.151,0.048s-2.273,0.174-2.816,0.429
		c-0.841,0.382-1.482,0.984-1.927,1.811c-0.445,0.825-0.717,1.573-0.816,2.239h-0.74v-14.438h0.74
		c0.197,0.794,0.52,1.532,0.965,2.217c0.443,0.682,1.086,1.262,1.926,1.738c0.297,0.158,0.717,0.277,1.261,0.357
		c0.543,0.079,1.187,0.143,1.927,0.19c0.742,0.048,1.52,0.079,2.335,0.095c0.815,0.017,1.618,0.024,2.409,0.024
		c0.691,0,1.631,0.007,2.816,0.024c1.186,0.016,2.482,0.031,3.891,0.047s2.854,0.024,4.336,0.024c1.531,0,2.965,0,4.299,0h14.453
		c0.89,0,1.779,0,2.668,0c0.89,0,1.717-0.024,2.484-0.071c0.765-0.049,1.456-0.119,2.074-0.215c0.617-0.096,1.1-0.238,1.445-0.429
		c0.84-0.445,1.445-0.993,1.816-1.644C858.402,511.72,858.661,510.982,858.809,510.156z M169.525,518.402c-1.531,0-2.965,0-4.299,0
		h-14.453c-0.89,0-1.779,0-2.669,0c-0.889,0-1.716,0.024-2.482,0.071c-0.766,0.048-1.457,0.12-2.075,0.215
		c-0.617,0.096-1.1,0.238-1.445,0.429c-0.84,0.445-1.445,0.993-1.816,1.644c-0.37,0.651-0.63,1.391-0.778,2.216h-0.741v-14.247
		h0.741c0.148,0.667,0.421,1.382,0.815,2.145c0.396,0.763,1.187,1.351,2.372,1.763c0.841,0.286,1.902,0.438,3.188,0.453
		c1.285,0.017,2.495,0.04,3.631,0.071c1.236,0,2.459,0.009,3.669,0.023c1.212,0.017,2.435,0.024,3.669,0.024
		c1.236,0,2.521,0,3.854,0c1.285,0,2.693,0,4.225,0h16.751c1.434,0,2.816-0.016,4.15-0.048c1.334-0.031,2.273-0.175,2.816-0.429
		c0.841-0.381,1.482-0.984,1.928-1.811c0.323-0.602,0.555-1.161,0.695-1.68c-0.572-1.193-1.604-2.428-3.104-3.704
		c-1.605-1.365-3.669-2.765-6.188-4.193c-0.84-0.477-1.915-1.063-3.225-1.763c-1.309-0.698-2.668-1.43-4.077-2.192
		c-1.408-0.763-2.779-1.493-4.113-2.192s-2.445-1.287-3.335-1.764c-0.395,0.191-1.346,0.628-2.854,1.311
		c-1.507,0.683-3.198,1.453-5.077,2.311c-1.877,0.857-3.743,1.708-5.596,2.549c-1.854,0.842-3.323,1.518-4.41,2.025
		c-1.433,0.667-2.692,1.263-3.78,1.787c-1.086,0.523-2.013,1.032-2.779,1.524c-0.766,0.493-1.408,1.017-1.927,1.573
		c-0.52,0.555-0.951,1.199-1.298,1.929h-0.741v-15.533h0.741c0.05,0.413,0.148,0.89,0.297,1.429
		c0.148,0.541,0.346,1.033,0.593,1.477c0.248,0.445,0.593,0.827,1.038,1.144c0.444,0.318,1.013,0.477,1.704,0.477
		c0.692,0,1.606-0.222,2.743-0.667c1.137-0.444,2.347-0.953,3.631-1.525c1.779-0.793,3.595-1.603,5.448-2.43
		c1.853-0.825,4.089-1.826,6.708-3.002c-1.878-1.048-3.929-2.121-6.152-3.216c-2.224-1.096-4.15-2.056-5.781-2.883
		c-0.79-0.381-1.778-0.793-2.965-1.239c-1.186-0.444-2.174-0.667-2.965-0.667c-0.691,0-1.284,0.151-1.778,0.453
		c-0.493,0.302-0.914,0.667-1.26,1.096c-0.346,0.429-0.618,0.898-0.815,1.406c-0.197,0.508-0.346,0.97-0.445,1.382h-0.741v-12.437
		h0.741c0.545,1.62,1.619,3.05,3.225,4.289c1.606,1.239,3.719,2.558,6.337,3.955c0.989,0.54,2.101,1.136,3.335,1.787
		c1.236,0.651,2.472,1.31,3.706,1.978c1.236,0.667,2.435,1.303,3.595,1.906c1.162,0.604,2.187,1.144,3.076,1.62
		c0.297-0.126,0.89-0.397,1.779-0.81c0.889-0.413,1.952-0.889,3.187-1.43c1.236-0.54,2.558-1.127,3.966-1.763
		c1.408-0.635,2.755-1.247,4.039-1.834c1.285-0.587,2.446-1.12,3.483-1.596c1.038-0.477,1.829-0.826,2.372-1.048
		c1.434-0.635,2.718-1.215,3.854-1.739c1.138-0.524,2.113-1.041,2.928-1.549c0.815-0.508,1.482-1.032,2.002-1.573
		c0.519-0.54,0.853-1.144,1-1.811h0.741v15.438h-0.741c-0.098-0.445-0.209-0.921-0.333-1.43c-0.123-0.507-0.309-0.984-0.556-1.43
		c-0.247-0.444-0.594-0.81-1.038-1.096s-1.013-0.429-1.705-0.429c-0.691,0-1.617,0.208-2.779,0.62
		c-1.16,0.413-2.383,0.89-3.669,1.429c-1.778,0.731-3.717,1.565-5.818,2.501c-2.1,0.938-4.458,2.009-7.078,3.217
		c0.939,0.508,1.978,1.064,3.113,1.667c1.138,0.604,2.286,1.208,3.446,1.811c1.162,0.604,2.286,1.184,3.372,1.739
		c1.088,0.556,2.052,1.024,2.892,1.406c0.988,0.445,1.977,0.842,2.964,1.191c0.989,0.35,1.928,0.523,2.816,0.523
		c0.692,0,1.298-0.143,1.816-0.429c0.519-0.285,0.952-0.65,1.297-1.095c0.347-0.445,0.618-0.921,0.815-1.43
		c0.198-0.507,0.347-0.984,0.444-1.429h0.741v11.816v0.812v13.626h-0.741c-0.196-0.793-0.519-1.531-0.963-2.215
		c-0.445-0.684-1.087-1.264-1.928-1.739c-0.296-0.159-0.716-0.278-1.26-0.357c-0.543-0.079-1.186-0.144-1.927-0.19
		c-0.741-0.048-1.52-0.079-2.335-0.096c-0.815-0.016-1.618-0.023-2.409-0.023c-0.691,0-1.63-0.008-2.816-0.024
		c-1.186-0.015-2.482-0.031-3.891-0.047C172.452,518.41,171.007,518.402,169.525,518.402z M248.059,675.808l0.293,0.49
		c-2.896,2.953-5.673,5.75-8.326,8.391c-2.652,2.64-5.201,5.189-7.646,7.65c-2.444,2.459-4.809,4.835-7.096,7.126
		c-2.286,2.292-4.582,4.589-6.89,6.893c-0.691,0.673-1.285,1.269-1.782,1.787c-0.495,0.519-0.953,1.005-1.373,1.459
		c-0.419,0.454-0.816,0.896-1.194,1.324c-0.376,0.429-0.771,0.877-1.182,1.345c-0.206,0.234-0.45,0.547-0.734,0.939
		c-0.284,0.391-0.531,0.844-0.742,1.358s-0.331,1.058-0.363,1.632c-0.03,0.574,0.12,1.187,0.452,1.84l-0.7,0.418l-7.309-12.229
		l0.637-0.38c0.124,0.111,0.335,0.318,0.631,0.622c0.297,0.304,0.672,0.569,1.125,0.799c0.453,0.229,0.978,0.358,1.572,0.393
		c0.596,0.032,1.211-0.142,1.848-0.521c0.382-0.229,1.194-0.918,2.435-2.066c1.243-1.15,2.729-2.564,4.457-4.246
		c1.73-1.681,3.614-3.538,5.651-5.569c2.039-2.032,4.038-4.032,5.999-6c1.962-1.968,3.784-3.807,5.468-5.516
		c1.686-1.71,3.072-3.095,4.166-4.155c-0.548,0.143-1.674,0.473-3.379,0.993c-1.705,0.519-3.827,1.157-6.367,1.917
		c-2.538,0.76-5.412,1.634-8.619,2.625c-3.207,0.992-6.558,2.031-10.052,3.121c-2.657,0.848-4.641,1.552-5.947,2.111
		c-1.307,0.559-2.192,0.977-2.66,1.256c-0.636,0.381-1.084,0.834-1.346,1.359c-0.261,0.525-0.407,1.076-0.439,1.65
		c-0.03,0.573,0.015,1.129,0.134,1.669c0.121,0.538,0.267,0.997,0.436,1.377l-0.637,0.38l-4.815-8.057l0,0l-7.309-12.23l0.637-0.379
		c0.469,0.496,1.069,0.97,1.8,1.422c0.731,0.451,1.711,0.551,2.94,0.297c0.868-0.187,1.857-0.602,2.968-1.247
		c1.112-0.646,2.163-1.246,3.154-1.802c1.061-0.633,2.114-1.254,3.161-1.861c1.048-0.607,2.103-1.229,3.162-1.861
		c1.061-0.635,2.163-1.293,3.309-1.978c1.103-0.659,2.312-1.382,3.626-2.167l14.379-8.594c1.23-0.735,2.409-1.458,3.538-2.17
		c1.129-0.711,1.862-1.315,2.197-1.813c0.526-0.759,0.769-1.605,0.726-2.543c-0.041-0.938-0.191-1.717-0.449-2.341l0.637-0.38
		l7.406,12.394l-0.636,0.38c-0.576-0.58-1.231-1.049-1.964-1.408c-0.732-0.357-1.58-0.526-2.547-0.504
		c-0.336,0.016-0.756,0.129-1.264,0.34c-0.508,0.21-1.092,0.485-1.753,0.824c-0.66,0.34-1.345,0.712-2.053,1.116
		c-0.708,0.405-1.401,0.81-2.08,1.216c-0.594,0.354-1.404,0.83-2.43,1.424c-1.026,0.595-2.147,1.247-3.365,1.955
		c-1.217,0.709-2.461,1.443-3.733,2.204c-1.314,0.786-2.545,1.521-3.69,2.206l-12.406,7.414c-0.764,0.456-1.527,0.912-2.291,1.369
		c-0.763,0.455-1.461,0.9-2.095,1.334c-0.632,0.434-1.189,0.85-1.671,1.249c-0.481,0.398-0.821,0.769-1.021,1.109
		c-0.492,0.813-0.731,1.594-0.716,2.343c0.009,0.424,0.068,0.853,0.166,1.287c0.448,0.366,0.965,0.632,1.553,0.794
		c0.827,0.228,1.35,0.331,1.568,0.312c0.176,0.006,0.447,0.002,0.812-0.014c0.366-0.015,0.871-0.084,1.515-0.211
		c0.646-0.126,1.447-0.301,2.407-0.522c0.961-0.222,2.154-0.538,3.579-0.946c2.362-0.67,5.001-1.434,7.915-2.287
		c2.915-0.854,5.913-1.737,8.992-2.653c3.079-0.915,6.166-1.844,9.258-2.786c3.094-0.94,6.027-1.834,8.804-2.679L248.059,675.808z
		 M186.115,670.695c-0.492,0.813-0.73,1.594-0.715,2.343c0.016,0.75,0.172,1.517,0.469,2.302l-0.637,0.379l-7.309-12.229
		l0.637-0.381c0.469,0.497,1.069,0.971,1.799,1.423c0.731,0.451,1.711,0.551,2.94,0.296c0.869-0.186,1.858-0.601,2.969-1.246
		c1.111-0.645,2.162-1.246,3.154-1.801c1.061-0.635,2.114-1.255,3.161-1.862c1.048-0.607,2.102-1.229,3.161-1.861
		c1.061-0.634,2.163-1.293,3.309-1.978c1.104-0.659,2.313-1.382,3.627-2.167l14.379-8.593c1.23-0.736,2.409-1.459,3.538-2.171
		c1.129-0.711,1.861-1.315,2.197-1.813c0.526-0.759,0.768-1.605,0.726-2.543c-0.042-0.937-0.191-1.717-0.449-2.341l0.637-0.38
		l7.406,12.394l-0.637,0.381c-0.576-0.581-1.231-1.05-1.964-1.408c-0.731-0.358-1.58-0.527-2.546-0.505
		c-0.336,0.017-0.757,0.129-1.265,0.34c-0.507,0.21-1.092,0.485-1.752,0.825c-0.661,0.339-1.345,0.711-2.054,1.115
		c-0.707,0.405-1.4,0.81-2.079,1.216c-0.594,0.354-1.403,0.829-2.43,1.424s-2.148,1.247-3.365,1.956s-2.462,1.443-3.734,2.203
		c-1.313,0.786-2.545,1.521-3.689,2.206l-12.406,7.414c-0.764,0.456-1.527,0.912-2.291,1.368c-0.764,0.457-1.461,0.901-2.095,1.335
		c-0.633,0.434-1.189,0.851-1.672,1.249C186.656,669.984,186.316,670.354,186.115,670.695z M177.585,656.422
		c-0.492,0.813-0.731,1.594-0.715,2.342c0.016,0.75,0.172,1.517,0.468,2.301l-0.636,0.381l-7.309-12.23l0.636-0.379
		c0.47,0.496,1.07,0.971,1.8,1.422c0.731,0.451,1.711,0.551,2.94,0.297c0.868-0.186,1.857-0.602,2.969-1.246
		c1.111-0.646,2.162-1.246,3.153-1.802c1.061-0.634,2.115-1.255,3.162-1.862c1.048-0.607,2.102-1.229,3.161-1.861
		c1.061-0.634,2.163-1.293,3.309-1.977c1.104-0.66,2.313-1.383,3.626-2.168l14.379-8.594c1.231-0.734,2.41-1.457,3.539-2.17
		c1.129-0.711,1.861-1.315,2.197-1.813c0.526-0.758,0.768-1.605,0.726-2.543c-0.042-0.937-0.191-1.717-0.449-2.34l0.636-0.381
		l7.407,12.394l-0.637,0.38c-0.576-0.58-1.231-1.049-1.964-1.408c-0.731-0.357-1.58-0.525-2.546-0.504
		c-0.336,0.016-0.757,0.129-1.265,0.34c-0.507,0.211-1.092,0.485-1.752,0.825c-0.661,0.339-1.346,0.712-2.054,1.116
		s-1.401,0.809-2.08,1.215c-0.594,0.355-1.403,0.83-2.43,1.424c-1.025,0.596-2.147,1.248-3.364,1.956s-2.462,1.442-3.734,2.204
		c-1.314,0.785-2.545,1.521-3.69,2.205l-12.406,7.414c-0.764,0.456-1.526,0.912-2.29,1.369c-0.764,0.456-1.461,0.9-2.095,1.334
		c-0.633,0.434-1.189,0.851-1.672,1.25C178.125,655.711,177.784,656.08,177.585,656.422z M820.932,661.197l0.655,0.348
		l-6.672,12.588l0,0l-6.024,11.367l-0.654-0.348c0.029-0.164,0.098-0.451,0.205-0.861c0.105-0.412,0.139-0.87,0.1-1.377
		c-0.039-0.506-0.199-1.021-0.479-1.548s-0.748-0.963-1.403-1.31c-0.393-0.208-1.402-0.547-3.028-1.012
		c-1.627-0.467-3.606-1.004-5.94-1.612s-4.898-1.257-7.692-1.946c-2.794-0.691-5.541-1.364-8.239-2.021
		c-2.7-0.658-5.217-1.264-7.551-1.818c-2.336-0.555-4.239-1.024-5.713-1.409c0.406,0.395,1.271,1.187,2.6,2.376
		c1.327,1.188,2.973,2.672,4.939,4.451c1.965,1.777,4.203,3.781,6.712,6.011c2.51,2.229,5.136,4.556,7.878,6.979
		c2.103,1.833,3.732,3.165,4.887,3.992c1.155,0.828,1.973,1.369,2.453,1.625c0.655,0.346,1.275,0.494,1.86,0.445
		s1.131-0.209,1.64-0.479c0.506-0.271,0.958-0.597,1.356-0.979s0.716-0.745,0.954-1.087l0.654,0.348l-5.199,9.811l-0.721-0.383
		c0.256-0.799,0.268-1.611,0.033-2.436c-0.234-0.826-0.416-1.326-0.545-1.503c-0.088-0.153-0.231-0.384-0.434-0.688
		s-0.523-0.699-0.965-1.185c-0.442-0.486-1.008-1.083-1.695-1.788c-0.688-0.707-1.576-1.564-2.663-2.571
		c-1.798-1.673-3.818-3.534-6.059-5.584c-2.241-2.051-4.55-4.156-6.929-6.315c-2.379-2.16-4.772-4.318-7.18-6.475
		c-2.408-2.158-4.692-4.204-6.854-6.141l-5.455-5.533l0.268-0.506c4.027,0.949,7.857,1.873,11.49,2.773
		c3.633,0.901,7.133,1.76,10.505,2.575c3.37,0.815,6.627,1.606,9.772,2.376c3.143,0.767,6.299,1.539,9.465,2.319
		c0.934,0.243,1.75,0.442,2.451,0.599c0.701,0.154,1.354,0.295,1.959,0.418c0.607,0.123,1.189,0.234,1.752,0.336
		c0.563,0.1,1.15,0.204,1.764,0.313c0.307,0.055,0.701,0.102,1.183,0.142c0.482,0.039,0.997,0.017,1.547-0.069
		c0.549-0.087,1.076-0.266,1.585-0.536c0.324-0.174,0.623-0.42,0.898-0.738c0.087-0.494,0.137-1.033,0.143-1.621
		c0.006-0.859-0.416-1.749-1.271-2.668c-0.608-0.646-1.477-1.277-2.604-1.894c-1.129-0.616-2.186-1.204-3.176-1.764
		c-1.092-0.578-2.168-1.158-3.23-1.739c-1.063-0.582-2.14-1.16-3.23-1.739c-1.092-0.578-2.227-1.18-3.405-1.805
		c-1.136-0.602-2.38-1.261-3.733-1.979l-14.8-7.845c-1.267-0.672-2.496-1.305-3.689-1.901s-2.091-0.911-2.689-0.94
		c-0.921-0.057-1.771,0.176-2.551,0.697c-0.779,0.521-1.37,1.055-1.769,1.598l-0.656-0.348l6.762-12.756l0.655,0.347
		c-0.198,0.794-0.259,1.597-0.187,2.409c0.074,0.812,0.368,1.624,0.889,2.439c0.188,0.278,0.502,0.58,0.945,0.905
		c0.443,0.323,0.981,0.682,1.613,1.071c0.633,0.389,1.307,0.781,2.019,1.178c0.714,0.395,1.419,0.778,2.118,1.148
		c0.61,0.324,1.438,0.771,2.477,1.34c1.041,0.569,2.18,1.19,3.416,1.864s2.51,1.357,3.82,2.052c1.353,0.717,2.619,1.389,3.798,2.014
		l12.771,6.768c0.785,0.417,1.572,0.834,2.357,1.25c0.786,0.416,1.527,0.783,2.228,1.1c0.698,0.316,1.343,0.577,1.934,0.782
		s1.083,0.304,1.478,0.298c0.951,0,1.742-0.2,2.375-0.602C819.84,662.388,820.414,661.857,820.932,661.197z M694.283,801.567
		l0.415,0.702l-12.257,7.262l-0.378-0.637c0.112-0.125,0.319-0.334,0.624-0.629c0.305-0.297,0.572-0.67,0.804-1.122
		c0.229-0.452,0.362-0.977,0.397-1.571c0.035-0.596-0.136-1.212-0.514-1.85c-0.227-0.383-0.912-1.197-2.057-2.442
		c-1.145-1.247-2.555-2.737-4.229-4.473c-1.674-1.736-3.525-3.627-5.549-5.672c-2.024-2.046-4.018-4.054-5.977-6.021
		c-1.961-1.97-3.793-3.799-5.496-5.488c-1.703-1.691-3.082-3.084-4.139-4.181c0.141,0.548,0.467,1.675,0.979,3.382
		c0.513,1.706,1.144,3.831,1.894,6.374c0.749,2.541,1.613,5.418,2.593,8.629s2.007,6.564,3.083,10.063
		c0.838,2.661,1.535,4.647,2.089,5.956s0.969,2.196,1.246,2.665c0.378,0.637,0.829,1.087,1.354,1.351
		c0.525,0.263,1.074,0.411,1.648,0.444c0.573,0.033,1.13-0.01,1.669-0.127c0.538-0.119,0.999-0.263,1.38-0.43l0.377,0.638
		l-9.551,5.66l-0.416-0.702c0.635-0.549,1.068-1.235,1.299-2.062c0.23-0.825,0.336-1.349,0.318-1.566
		c0.006-0.177,0.002-0.448-0.012-0.813c-0.014-0.366-0.081-0.871-0.205-1.515c-0.123-0.646-0.295-1.449-0.514-2.41
		c-0.219-0.963-0.529-2.156-0.932-3.582c-0.662-2.365-1.416-5.007-2.258-7.924c-0.844-2.919-1.717-5.919-2.621-9.002
		c-0.902-3.083-1.82-6.173-2.75-9.269c-0.93-3.097-1.812-6.034-2.646-8.813l-1.77-7.566l0.492-0.291
		c2.941,2.908,5.728,5.695,8.357,8.357c2.631,2.663,5.172,5.221,7.622,7.675c2.45,2.453,4.817,4.826,7.101,7.122
		c2.283,2.294,4.572,4.599,6.867,6.915c0.67,0.693,1.262,1.29,1.779,1.788c0.517,0.498,1.002,0.958,1.454,1.379
		c0.452,0.422,0.892,0.82,1.319,1.199s0.875,0.774,1.34,1.188c0.234,0.207,0.546,0.453,0.937,0.738
		c0.392,0.285,0.843,0.534,1.356,0.747c0.514,0.212,1.057,0.335,1.631,0.368S693.629,801.897,694.283,801.567z M360.881,774.419
		l0.483,0.305c-1.244,3.946-2.45,7.696-3.618,11.253c-1.168,3.556-2.283,6.984-3.348,10.285c-1.063,3.3-2.094,6.49-3.094,9.568
		c-0.998,3.079-2.003,6.168-3.016,9.268c-0.311,0.912-0.57,1.713-0.778,2.4c-0.206,0.687-0.395,1.328-0.563,1.923
		c-0.167,0.595-0.321,1.169-0.464,1.722c-0.142,0.553-0.29,1.131-0.444,1.734c-0.077,0.302-0.153,0.691-0.229,1.17
		c-0.075,0.478-0.09,0.994-0.045,1.548s0.186,1.093,0.417,1.619c0.231,0.525,0.644,1.003,1.235,1.435l-0.434,0.69l-12.059-7.588
		l0.395-0.627c0.162,0.043,0.443,0.132,0.845,0.269c0.403,0.136,0.857,0.203,1.364,0.202c0.508-0.003,1.035-0.124,1.58-0.363
		c0.546-0.241,1.016-0.675,1.41-1.302c0.237-0.377,0.649-1.358,1.234-2.945c0.586-1.588,1.27-3.523,2.049-5.805
		c0.779-2.283,1.617-4.793,2.512-7.527c0.896-2.734,1.771-5.424,2.627-8.066c0.857-2.644,1.647-5.108,2.373-7.396
		c0.727-2.287,1.336-4.15,1.83-5.591c-0.424,0.375-1.278,1.18-2.563,2.416c-1.283,1.234-2.885,2.767-4.805,4.595
		c-1.92,1.827-4.084,3.911-6.494,6.247c-2.408,2.338-4.923,4.783-7.543,7.338c-1.985,1.961-3.434,3.488-4.346,4.578
		c-0.911,1.09-1.512,1.865-1.801,2.326c-0.395,0.627-0.588,1.234-0.584,1.822c0.007,0.586,0.125,1.143,0.357,1.669
		c0.232,0.525,0.524,1.001,0.875,1.427c0.352,0.426,0.689,0.77,1.012,1.031l-0.395,0.627l-9.396-5.912l0,0l-10.605-6.674
		l0.395-0.628c0.643,0.229,1.393,0.38,2.248,0.452c0.857,0.071,1.775-0.285,2.756-1.068c0.689-0.56,1.383-1.378,2.08-2.457
		c0.699-1.078,1.363-2.09,1.996-3.035c0.658-1.046,1.315-2.077,1.973-3.093c0.66-1.017,1.316-2.048,1.975-3.093
		c0.658-1.046,1.342-2.133,2.053-3.262c0.684-1.088,1.435-2.28,2.25-3.576l8.92-14.178c0.764-1.213,1.488-2.393,2.172-3.538
		s1.063-2.017,1.137-2.612c0.125-0.914-0.044-1.779-0.507-2.596c-0.462-0.815-0.948-1.443-1.462-1.883l0.395-0.627l12.221,7.689
		l-0.395,0.627c-0.777-0.256-1.573-0.377-2.389-0.364c-0.814,0.013-1.646,0.247-2.498,0.705c-0.293,0.166-0.616,0.458-0.974,0.876
		c-0.356,0.418-0.753,0.928-1.188,1.529s-0.876,1.244-1.325,1.925c-0.447,0.683-0.881,1.356-1.303,2.026
		c-0.367,0.586-0.874,1.377-1.52,2.371c-0.645,0.996-1.35,2.086-2.112,3.268c-0.763,1.185-1.54,2.403-2.329,3.658
		c-0.816,1.295-1.58,2.509-2.29,3.639l-7.697,12.232c-0.474,0.753-0.947,1.506-1.421,2.258c-0.475,0.753-0.895,1.466-1.262,2.141
		c-0.367,0.673-0.676,1.297-0.924,1.87s-0.384,1.058-0.406,1.452c-0.071,0.947,0.07,1.752,0.424,2.412
		c0.199,0.373,0.447,0.729,0.73,1.072c0.566,0.123,1.147,0.125,1.744,0.004c0.84-0.172,1.354-0.317,1.539-0.433
		c0.16-0.075,0.4-0.202,0.718-0.381c0.319-0.179,0.737-0.47,1.255-0.874c0.518-0.405,1.154-0.924,1.908-1.559
		c0.756-0.634,1.676-1.455,2.762-2.465c1.802-1.669,3.807-3.546,6.018-5.627c2.211-2.083,4.482-4.229,6.813-6.441
		c2.33-2.211,4.66-4.439,6.989-6.68c2.331-2.242,4.54-4.367,6.632-6.379L360.881,774.419z M303.351,797.941
		c-0.071,0.949,0.07,1.753,0.424,2.414c0.354,0.66,0.841,1.273,1.461,1.838l-0.396,0.627l-12.058-7.587l0.395-0.628
		c0.644,0.23,1.394,0.381,2.249,0.452c0.856,0.071,1.775-0.284,2.756-1.068c0.689-0.56,1.383-1.378,2.08-2.456
		c0.699-1.08,1.363-2.091,1.994-3.036c0.658-1.046,1.316-2.077,1.975-3.093c0.658-1.017,1.316-2.048,1.975-3.093
		c0.657-1.046,1.342-2.133,2.053-3.263c0.684-1.088,1.434-2.279,2.249-3.575l8.921-14.177c0.764-1.215,1.486-2.393,2.17-3.539
		c0.685-1.146,1.064-2.017,1.137-2.612c0.126-0.915-0.043-1.778-0.506-2.595c-0.461-0.816-0.949-1.444-1.461-1.883l0.395-0.627
		l12.221,7.688l-0.395,0.628c-0.777-0.257-1.574-0.377-2.389-0.365c-0.814,0.013-1.647,0.247-2.498,0.705
		c-0.293,0.166-0.617,0.457-0.975,0.876c-0.355,0.418-0.752,0.928-1.188,1.529c-0.435,0.603-0.875,1.244-1.324,1.925
		c-0.447,0.683-0.881,1.357-1.303,2.027c-0.367,0.585-0.875,1.375-1.521,2.371c-0.645,0.995-1.349,2.084-2.112,3.268
		s-1.539,2.402-2.329,3.657c-0.815,1.296-1.579,2.509-2.29,3.639l-7.697,12.233c-0.473,0.752-0.947,1.505-1.42,2.258
		c-0.475,0.752-0.895,1.465-1.263,2.14c-0.367,0.673-0.675,1.297-0.924,1.87C303.51,797.064,303.373,797.548,303.351,797.941z
		 M523.85,857.875c0.473,0.326,1.072,0.52,1.803,0.58l-0.011,0.814l-14.246-0.189l0.011-0.741c0.16-0.048,0.446-0.118,0.859-0.211
		c0.415-0.094,0.838-0.273,1.271-0.539c0.433-0.267,0.818-0.645,1.159-1.134c0.34-0.49,0.516-1.104,0.524-1.846
		c0.007-0.444-0.154-1.498-0.481-3.156c-0.328-1.661-0.754-3.668-1.279-6.021c-0.523-2.355-1.117-4.933-1.777-7.732
		c-0.662-2.802-1.316-5.553-1.963-8.255c-0.647-2.702-1.258-5.218-1.83-7.548c-0.572-2.331-1.023-4.238-1.354-5.726
		c-0.166,0.541-0.475,1.673-0.928,3.397c-0.451,1.724-1.02,3.865-1.705,6.426s-1.447,5.467-2.285,8.717
		c-0.836,3.25-1.708,6.648-2.613,10.194c-0.671,2.708-1.111,4.767-1.32,6.172c-0.21,1.405-0.318,2.38-0.326,2.924
		c-0.01,0.741,0.143,1.36,0.453,1.858s0.701,0.91,1.174,1.239c0.473,0.327,0.969,0.58,1.491,0.761
		c0.521,0.18,0.989,0.297,1.401,0.353l-0.01,0.741l-9.387-0.125l0,0l-14.246-0.19l0.01-0.741c0.67-0.139,1.389-0.401,2.156-0.786
		c0.768-0.386,1.365-1.168,1.794-2.349c0.298-0.836,0.462-1.896,0.495-3.181c0.033-1.285,0.074-2.494,0.12-3.63
		c0.017-1.236,0.04-2.459,0.073-3.668c0.031-1.212,0.055-2.434,0.072-3.669c0.016-1.235,0.033-2.52,0.051-3.854
		c0.018-1.285,0.036-2.693,0.057-4.224l0.223-16.75c0.02-1.434,0.022-2.816,0.008-4.15c-0.014-1.335-0.144-2.276-0.391-2.822
		c-0.37-0.846-0.965-1.496-1.785-1.951c-0.819-0.456-1.563-0.738-2.229-0.845l0.01-0.741l14.438,0.192l-0.012,0.741
		c-0.795,0.186-1.538,0.498-2.229,0.934c-0.688,0.436-1.276,1.069-1.764,1.904c-0.162,0.294-0.287,0.711-0.373,1.254
		c-0.088,0.543-0.16,1.185-0.217,1.925c-0.059,0.74-0.1,1.519-0.127,2.333c-0.026,0.815-0.045,1.617-0.057,2.408
		c-0.008,0.691-0.029,1.631-0.061,2.816s-0.064,2.482-0.1,3.891c-0.035,1.407-0.062,2.853-0.082,4.334
		c-0.02,1.531-0.039,2.965-0.057,4.299l-0.193,14.452c-0.012,0.89-0.023,1.778-0.035,2.668s0.002,1.717,0.039,2.483
		s0.1,1.459,0.186,2.078c0.088,0.619,0.225,1.103,0.41,1.451c0.434,0.846,0.974,1.459,1.619,1.838
		c0.365,0.214,0.762,0.389,1.184,0.533c0.547-0.189,1.044-0.49,1.49-0.905c0.627-0.585,0.99-0.976,1.088-1.172
		c0.098-0.147,0.236-0.38,0.414-0.698c0.18-0.32,0.385-0.786,0.615-1.4c0.23-0.615,0.502-1.391,0.816-2.324
		c0.314-0.936,0.672-2.117,1.072-3.543c0.668-2.363,1.4-5.012,2.202-7.939c0.802-2.931,1.62-5.945,2.456-9.048
		s1.662-6.217,2.482-9.344c0.82-3.128,1.6-6.094,2.335-8.901l2.434-7.379l0.571,0.007c0.996,4.017,1.922,7.846,2.778,11.489
		s1.691,7.15,2.505,10.522c0.813,3.37,1.596,6.63,2.348,9.778c0.752,3.147,1.504,6.309,2.256,9.481
		c0.21,0.94,0.406,1.759,0.587,2.454c0.181,0.693,0.356,1.339,0.522,1.934c0.166,0.596,0.334,1.164,0.5,1.712
		c0.168,0.545,0.344,1.116,0.525,1.712c0.092,0.297,0.23,0.67,0.414,1.117c0.186,0.447,0.441,0.896,0.77,1.345
		C522.978,857.158,523.377,857.547,523.85,857.875z M180.207,333.118l-0.632-0.387l8.114-13.246l0.632,0.387
		c-0.173,0.379-0.338,0.836-0.494,1.374c-0.156,0.538-0.244,1.062-0.266,1.569c-0.021,0.509,0.074,1.014,0.287,1.518
		c0.213,0.503,0.615,0.935,1.205,1.297c0.59,0.361,1.485,0.649,2.687,0.863c1.202,0.215,2.5,0.414,3.894,0.597
		c1.932,0.252,3.902,0.51,5.915,0.773c2.011,0.264,4.44,0.579,7.288,0.944c-1.054-1.875-2.242-3.86-3.566-5.957
		c-1.323-2.096-2.465-3.921-3.424-5.478c-0.474-0.737-1.102-1.606-1.881-2.605c-0.778-0.999-1.505-1.704-2.179-2.118
		c-0.59-0.361-1.175-0.542-1.754-0.543c-0.578,0-1.128,0.091-1.646,0.276c-0.519,0.186-0.996,0.443-1.43,0.772
		c-0.434,0.331-0.801,0.646-1.102,0.947l-0.632-0.388l6.497-10.605l0.632,0.388c-0.382,1.666-0.213,3.446,0.509,5.341
		c0.723,1.896,1.835,4.124,3.338,6.683c0.561,0.978,1.198,2.066,1.91,3.266c0.714,1.202,1.423,2.409,2.127,3.622
		c0.706,1.214,1.396,2.383,2.07,3.503c0.675,1.122,1.267,2.118,1.776,2.989c0.319,0.047,0.966,0.126,1.94,0.239
		c0.974,0.113,2.129,0.261,3.464,0.446c1.336,0.185,2.77,0.374,4.303,0.568c1.532,0.194,3,0.376,4.402,0.546
		c1.403,0.171,2.671,0.323,3.805,0.458s1.99,0.251,2.57,0.345c1.554,0.208,2.952,0.384,4.194,0.53
		c1.244,0.147,2.346,0.216,3.307,0.209c0.959-0.007,1.803-0.105,2.527-0.295c0.725-0.189,1.324-0.53,1.799-1.021l0.632,0.388
		l-8.064,13.164l-0.632-0.388c0.148-0.43,0.303-0.894,0.463-1.393c0.16-0.497,0.25-1,0.271-1.509c0.021-0.508-0.082-1-0.313-1.477
		c-0.229-0.476-0.639-0.895-1.229-1.256c-0.59-0.361-1.488-0.669-2.694-0.924c-1.205-0.254-2.497-0.486-3.875-0.698
		c-1.899-0.305-3.987-0.607-6.269-0.906c-2.279-0.297-4.852-0.616-7.716-0.955c0.535,0.924,1.13,1.94,1.783,3.048
		c0.654,1.109,1.318,2.224,1.993,3.345c0.675,1.122,1.331,2.204,1.967,3.244c0.637,1.042,1.214,1.945,1.73,2.709
		c0.611,0.896,1.246,1.75,1.906,2.564c0.66,0.815,1.369,1.454,2.128,1.918c0.59,0.362,1.181,0.556,1.772,0.583
		c0.591,0.027,1.151-0.058,1.679-0.257c0.527-0.198,1.008-0.462,1.441-0.793c0.435-0.329,0.81-0.658,1.126-0.987l0.632,0.388
		l-6.596,10.767l-0.632-0.387c0.2-1.367-0.027-3.053-0.684-5.056c-0.655-2.003-1.685-4.273-3.087-6.809
		c-0.467-0.845-1.076-1.908-1.828-3.188c-0.751-1.279-1.528-2.613-2.331-3.999s-1.59-2.725-2.362-4.018
		c-0.773-1.292-1.414-2.375-1.924-3.246c-0.436-0.043-1.476-0.168-3.117-0.374c-1.643-0.204-3.487-0.431-5.537-0.681
		c-2.049-0.249-4.084-0.499-6.104-0.75c-2.02-0.25-3.625-0.442-4.818-0.577c-1.57-0.18-2.955-0.33-4.156-0.451
		c-1.2-0.121-2.256-0.171-3.167-0.152c-0.91,0.021-1.731,0.131-2.465,0.334C181.588,332.353,180.884,332.676,180.207,333.118z
		 M765.063,345.962l-7.434-12.377l0.635-0.381c0.578,0.579,1.234,1.046,1.967,1.403c0.732,0.356,1.582,0.523,2.548,0.499
		c0.335-0.017,0.757-0.13,1.265-0.342c0.506-0.212,1.09-0.488,1.75-0.829c0.66-0.341,1.344-0.715,2.051-1.121
		c0.706-0.406,1.398-0.812,2.076-1.219c0.594-0.356,1.402-0.833,2.428-1.43c1.024-0.597,2.145-1.251,3.359-1.962
		c1.216-0.711,2.459-1.449,3.73-2.212c1.313-0.789,2.541-1.526,3.685-2.213l12.391-7.441c0.763-0.458,1.524-0.916,2.287-1.374
		c0.763-0.458,1.459-0.904,2.092-1.34c0.632-0.435,1.188-0.852,1.669-1.252c0.479-0.4,0.819-0.77,1.018-1.112
		c0.491-0.814,0.729-1.595,0.711-2.344c-0.018-0.75-0.176-1.517-0.474-2.3l0.636-0.381l7.335,12.214l-0.636,0.381
		c-0.471-0.495-1.072-0.968-1.803-1.418c-0.732-0.45-1.712-0.547-2.941-0.29c-0.867,0.188-1.855,0.604-2.965,1.252
		c-1.11,0.647-2.16,1.25-3.15,1.809c-1.059,0.636-2.111,1.259-3.157,1.869c-1.047,0.61-2.099,1.233-3.157,1.869
		c-1.06,0.636-2.16,1.297-3.305,1.984c-1.102,0.662-2.309,1.387-3.621,2.175l-14.359,8.625c-1.23,0.738-2.408,1.463-3.535,2.177
		c-1.127,0.713-1.858,1.32-2.193,1.818c-0.523,0.76-0.764,1.607-0.72,2.544c0.044,0.937,0.195,1.717,0.454,2.34L765.063,345.962z
		 M811.141,325.512c0.49-0.813,0.728-1.595,0.71-2.344c-0.019-0.749-0.176-1.516-0.474-2.3l0.635-0.382l7.336,12.214l-0.635,0.381
		c-0.471-0.496-1.072-0.968-1.804-1.418c-0.732-0.449-1.712-0.547-2.94-0.29c-0.869,0.188-1.856,0.604-2.965,1.252
		c-1.111,0.648-2.16,1.25-3.15,1.809c-1.06,0.636-2.113,1.259-3.158,1.868c-1.047,0.61-2.1,1.233-3.157,1.868
		c-1.06,0.637-2.161,1.298-3.304,1.985c-1.103,0.662-2.311,1.387-3.622,2.175l-14.36,8.624c-1.229,0.738-2.406,1.464-3.533,2.178
		c-1.128,0.714-1.859,1.32-2.193,1.818c-0.525,0.76-0.765,1.607-0.721,2.544s0.195,1.717,0.455,2.34l-0.636,0.381l-7.435-12.377
		l0.637-0.381c0.577,0.579,1.232,1.046,1.967,1.403c0.732,0.356,1.581,0.523,2.547,0.498c0.336-0.016,0.756-0.13,1.264-0.342
		c0.506-0.212,1.091-0.488,1.75-0.829c0.66-0.34,1.344-0.714,2.051-1.12s1.399-0.813,2.078-1.22c0.592-0.356,1.401-0.833,2.427-1.43
		c1.024-0.597,2.145-1.252,3.36-1.963c1.215-0.711,2.459-1.448,3.729-2.212c1.313-0.788,2.542-1.526,3.686-2.213l12.391-7.441
		c0.762-0.458,1.525-0.916,2.287-1.374c0.764-0.458,1.459-0.904,2.092-1.34c0.633-0.435,1.188-0.852,1.669-1.252
		C810.602,326.225,810.942,325.855,811.141,325.512z M299.481,201.326c0.744,0.16,1.523,0.443,2.34,0.847
		c0.814,0.405,1.727,0.939,2.734,1.603c1.008,0.665,2.166,1.44,3.473,2.328c0.994,0.673,2.328,1.588,4.002,2.746
		c1.672,1.159,3.359,2.324,5.059,3.496c1.701,1.172,3.229,2.229,4.59,3.172c1.359,0.943,2.223,1.535,2.588,1.776
		c0.047,1.008,0.113,2.264,0.198,3.768c0.085,1.503,0.161,3.056,0.229,4.655s0.139,3.142,0.211,4.624
		c0.072,1.483,0.119,2.707,0.141,3.672c0.066,2.896-0.074,5.385-0.424,7.463c-0.348,2.08-0.928,3.679-1.74,4.797l0.381,0.636
		l10.838-6.479l-0.381-0.636c-0.432,0.144-0.916,0.261-1.455,0.352c-0.537,0.092-1.086,0.103-1.645,0.034
		c-0.559-0.069-1.095-0.253-1.606-0.552c-0.512-0.298-0.944-0.744-1.3-1.339c-0.457-0.763-0.789-1.658-0.996-2.686
		c-0.207-1.027-0.373-2.079-0.498-3.156c-0.104-0.916-0.195-1.983-0.277-3.202c-0.08-1.218-0.159-2.48-0.236-3.787
		c-0.078-1.306-0.15-2.602-0.215-3.888c-0.065-1.284-0.121-2.46-0.166-3.527c2.381,1.629,4.511,3.104,6.393,4.425
		c1.883,1.322,3.592,2.559,5.133,3.71c1.123,0.827,2.16,1.632,3.109,2.416c0.95,0.786,1.604,1.475,1.958,2.068
		c0.354,0.594,0.524,1.155,0.507,1.683c-0.018,0.529-0.154,1.013-0.408,1.453c-0.256,0.441-0.568,0.845-0.941,1.211
		c-0.373,0.367-0.725,0.707-1.057,1.02l0.381,0.636l12.35-7.383l0.001,0l12.392-7.409l-0.379-0.636
		c-0.623,0.258-1.404,0.407-2.342,0.45s-1.783-0.199-2.543-0.725c-0.496-0.336-1.102-1.068-1.813-2.198
		c-0.712-1.128-1.436-2.307-2.171-3.538l-8.595-14.377c-0.785-1.314-1.508-2.522-2.168-3.626c-0.685-1.145-1.344-2.248-1.978-3.308
		c-0.634-1.06-1.255-2.113-1.862-3.161c-0.607-1.047-1.229-2.101-1.861-3.162c-0.557-0.991-1.157-2.042-1.803-3.153
		c-0.646-1.111-1.061-2.1-1.246-2.969c-0.256-1.229-0.156-2.208,0.295-2.939c0.452-0.73,0.926-1.331,1.423-1.8l-0.38-0.636
		l-12.229,7.311l0,0l-9.569,5.721l0.381,0.637c0.404-0.126,0.875-0.235,1.413-0.328c0.538-0.09,1.079-0.097,1.625-0.021
		c0.546,0.077,1.075,0.251,1.587,0.519c0.513,0.27,0.947,0.701,1.302,1.295c0.405,0.679,0.722,1.641,0.948,2.887
		c0.227,1.247,0.38,2.307,0.459,3.181c0.127,1.823,0.291,3.97,0.491,6.441c0.2,2.471,0.333,4.781,0.396,6.931
		c-2.352-1.645-4.358-3.05-6.018-4.217c-1.66-1.166-3.287-2.309-4.881-3.429c-1.15-0.809-2.208-1.586-3.174-2.334
		c-0.965-0.747-1.623-1.417-1.979-2.012c-0.355-0.593-0.511-1.163-0.467-1.708c0.045-0.544,0.195-1.036,0.449-1.477
		c0.256-0.44,0.576-0.862,0.964-1.267c0.388-0.405,0.746-0.733,1.075-0.988l-0.381-0.637l-13.332,7.971l0.38,0.636
		C297.964,201.125,298.739,201.166,299.481,201.326z M324.948,188.346c0.215-1.805,0.783-3.321,1.699-4.551
		c0.516-0.136,1.024-0.215,1.524-0.225c0.749-0.016,1.53,0.223,2.343,0.715c0.342,0.199,0.711,0.539,1.109,1.02
		c0.399,0.482,0.815,1.039,1.249,1.671c0.435,0.633,0.88,1.332,1.335,2.095c0.457,0.764,0.913,1.526,1.369,2.29l7.416,12.406
		c0.686,1.145,1.421,2.375,2.207,3.689c0.76,1.272,1.494,2.518,2.203,3.734c0.709,1.217,1.361,2.338,1.957,3.365
		c0.594,1.026,1.069,1.836,1.424,2.429c0.406,0.679,0.811,1.372,1.216,2.08c0.404,0.708,0.776,1.392,1.116,2.053
		s0.614,1.246,0.825,1.751c0.211,0.509,0.323,0.929,0.34,1.265c0.022,0.966-0.146,1.814-0.505,2.546
		c-0.275,0.565-0.619,1.083-1.027,1.555c-0.494,0.084-1.01,0.065-1.547-0.059c-0.73-0.168-1.521-0.472-2.377-0.911
		c-0.854-0.439-1.797-1.011-2.831-1.719c-1.032-0.706-2.189-1.51-3.47-2.415c-0.471-0.352-1.176-0.852-2.117-1.498
		c-0.941-0.647-1.994-1.369-3.158-2.171c-1.163-0.8-2.379-1.643-3.646-2.526c-1.269-0.883-2.451-1.715-3.549-2.499
		c-1.097-0.782-2.051-1.45-2.861-2.002c-0.811-0.551-1.348-0.921-1.607-1.111c-0.049-1.008-0.111-2.165-0.189-3.472
		c-0.076-1.305-0.146-2.661-0.207-4.063c-0.062-1.402-0.13-2.801-0.205-4.196c-0.074-1.393-0.135-2.653-0.178-3.779
		C324.66,192.851,324.709,190.361,324.948,188.346z M659.326,236.478l-12.604-7.042l0.362-0.647c0.789,0.214,1.59,0.294,2.404,0.239
		c0.813-0.055,1.631-0.332,2.457-0.834c0.283-0.181,0.592-0.489,0.928-0.925c0.333-0.436,0.703-0.965,1.105-1.589
		c0.403-0.624,0.811-1.288,1.223-1.992c0.41-0.704,0.81-1.401,1.195-2.091c0.338-0.604,0.802-1.42,1.395-2.448
		c0.592-1.027,1.238-2.152,1.939-3.373c0.7-1.222,1.412-2.48,2.135-3.774c0.747-1.337,1.447-2.588,2.098-3.753l7.049-12.617
		c0.434-0.777,0.867-1.553,1.303-2.33c0.434-0.776,0.814-1.51,1.148-2.202c0.331-0.691,0.606-1.33,0.824-1.917
		c0.218-0.585,0.328-1.076,0.33-1.471c0.021-0.95-0.162-1.747-0.549-2.387c-0.388-0.641-0.906-1.228-1.555-1.76l0.361-0.647
		l12.438,6.949l-0.361,0.647c-0.654-0.196-1.412-0.307-2.27-0.334c-0.858-0.026-1.758,0.377-2.695,1.211
		c-0.66,0.594-1.311,1.447-1.949,2.561c-0.643,1.114-1.254,2.159-1.834,3.136c-0.604,1.079-1.207,2.143-1.811,3.191
		c-0.605,1.05-1.209,2.114-1.811,3.191c-0.604,1.079-1.229,2.2-1.88,3.365c-0.627,1.122-1.313,2.352-2.061,3.688l-8.17,14.623
		c-0.7,1.252-1.36,2.466-1.983,3.647c-0.623,1.18-0.957,2.069-0.999,2.667c-0.077,0.92,0.136,1.775,0.642,2.566
		c0.503,0.791,1.021,1.393,1.557,1.804L659.326,236.478z M883.797,420.409c-5.15-25.198-12.834-49.979-22.84-73.655
		c-9.824-23.247-21.984-45.666-36.143-66.633c-14.025-20.768-30.133-40.295-47.877-58.04s-37.271-33.852-58.04-47.876
		c-20.968-14.159-43.386-26.32-66.633-36.144c-23.677-10.005-48.457-17.689-73.655-22.839c-25.852-5.283-52.465-7.961-79.1-7.961
		s-53.248,2.679-79.101,7.961c-25.198,5.149-49.979,12.833-73.655,22.839c-23.246,9.824-45.665,21.985-66.633,36.144
		c-20.768,14.024-40.295,30.132-58.039,47.876s-33.853,37.271-47.877,58.04c-14.159,20.967-26.319,43.386-36.145,66.633
		c-10.005,23.676-17.688,48.457-22.838,73.655c-5.283,25.852-7.962,52.465-7.962,79.1s2.679,53.248,7.962,79.1
		c5.149,25.198,12.833,49.979,22.838,73.654c9.825,23.248,21.985,45.666,36.145,66.633c14.024,20.769,30.133,40.297,47.877,58.04
		c17.744,17.744,37.271,33.853,58.039,47.877c20.968,14.159,43.387,26.319,66.633,36.144c23.676,10.006,48.457,17.689,73.655,22.84
		c25.853,5.282,52.466,7.961,79.101,7.961s53.248-2.679,79.1-7.961c25.198-5.15,49.979-12.834,73.655-22.84
		c23.247-9.824,45.665-21.984,66.633-36.144c20.769-14.024,40.296-30.133,58.04-47.877c17.744-17.743,33.852-37.271,47.877-58.04
		c14.158-20.967,26.318-43.385,36.143-66.633c10.006-23.676,17.689-48.456,22.84-73.654c5.282-25.853,7.961-52.465,7.961-79.1
		S889.079,446.26,883.797,420.409z M871.069,499.409c-0.002-8.044-0.264-16.085-0.779-24.103l17.574-1.151
		c0.54,8.399,0.813,16.826,0.816,25.254H871.069z M888.68,499.608c-0.003,8.429-0.276,16.854-0.816,25.255l-17.574-1.152
		c0.516-8.017,0.777-16.059,0.779-24.103H888.68z M887.85,473.956l-17.573,1.152c-0.521-8.034-1.299-16.042-2.331-24.004
		l17.463-2.299C886.49,457.146,887.305,465.538,887.85,473.956z M293.325,805.238c-19.519-13.182-37.872-28.32-54.548-44.997
		c-16.677-16.677-31.816-35.029-44.997-54.548c-13.307-19.705-24.735-40.774-33.968-62.621
		c-9.403-22.25-16.624-45.539-21.463-69.219c-4.966-24.297-7.483-49.311-7.483-74.344c0-25.035,2.518-50.047,7.483-74.344
		c4.839-23.68,12.06-46.969,21.463-69.219c9.232-21.847,20.661-42.916,33.968-62.621c13.181-19.519,28.32-37.872,44.997-54.548
		c16.676-16.677,35.029-31.816,54.548-44.997c19.706-13.307,40.774-24.735,62.622-33.968c22.25-9.403,45.537-16.625,69.219-21.463
		c24.297-4.965,49.309-7.483,74.344-7.483c25.034,0,50.047,2.518,74.344,7.483c23.681,4.839,46.969,12.061,69.219,21.463
		c21.848,9.232,42.916,20.661,62.621,33.968c19.52,13.181,37.871,28.32,54.549,44.997c16.676,16.677,31.814,35.029,44.996,54.548
		c13.307,19.705,24.736,40.774,33.969,62.621c9.402,22.25,16.623,45.539,21.463,69.219c4.965,24.297,7.482,49.31,7.482,74.344
		c0,25.034-2.518,50.047-7.482,74.344c-4.84,23.68-12.061,46.969-21.463,69.219c-9.232,21.847-20.662,42.916-33.969,62.621
		c-13.182,19.519-28.32,37.871-44.996,54.548c-16.678,16.677-35.029,31.815-54.549,44.997
		c-19.705,13.307-40.773,24.735-62.621,33.968c-22.25,9.403-45.538,16.624-69.219,21.463c-24.297,4.966-49.31,7.483-74.344,7.483
		c-25.035,0-50.047-2.518-74.344-7.483c-23.682-4.839-46.969-12.06-69.219-21.463C334.1,829.973,313.031,818.545,293.325,805.238z
		 M863.528,424.581c-1.451-7.098-3.115-14.16-4.985-21.171l17.017-4.56c1.959,7.343,3.702,14.741,5.221,22.175
		c0.167,0.814,0.33,1.629,0.492,2.445l-17.277,3.437C863.841,426.131,863.686,425.356,863.528,424.581z M858.49,403.217
		c-2.076-7.769-4.406-15.473-6.983-23.09l16.684-5.663c2.7,7.981,5.142,16.054,7.317,24.194L858.49,403.217z M821.448,313.753
		l15.258-8.809c4.217,7.3,8.195,14.736,11.926,22.286l-15.801,7.792C829.27,327.817,825.471,320.72,821.448,313.753z
		 M807.656,291.693c-4.217-6.243-8.631-12.367-13.23-18.355l13.976-10.724c4.819,6.274,9.444,12.69,13.86,19.23
		c0.293,0.434,0.584,0.869,0.875,1.304l-14.647,9.788C808.211,292.521,807.935,292.106,807.656,291.693z M744.629,220.156
		l11.613-13.244c6.338,5.562,12.494,11.326,18.447,17.277l-12.457,12.456C756.551,230.966,750.676,225.464,744.629,220.156z
		 M685.438,177.671l8.809-15.257c7.298,4.22,14.459,8.676,21.459,13.357l-9.787,14.648
		C699.237,185.951,692.403,181.698,685.438,177.671z M619.08,147.576l5.663-16.684c7.987,2.708,15.882,5.674,23.661,8.893
		l-6.742,16.277C634.239,152.991,626.703,150.159,619.08,147.576z M571.916,134.986c-7.871-1.551-15.813-2.847-23.804-3.887
		l2.298-17.462c8.373,1.09,16.695,2.447,24.942,4.072L571.916,134.986z M547.914,131.073c-7.961-1.032-15.969-1.81-24.004-2.331
		l1.152-17.573c8.418,0.545,16.81,1.36,25.15,2.442L547.914,131.073z M451.104,131.073l-2.299-17.462
		c8.342-1.082,16.733-1.897,25.152-2.442l1.151,17.573C467.074,129.263,459.066,130.041,451.104,131.073z M450.906,131.099
		c-7.99,1.041-15.934,2.336-23.803,3.887l-3.438-17.277c8.246-1.625,16.568-2.982,24.941-4.072L450.906,131.099z M357.358,156.062
		l-6.742-16.277c7.777-3.219,15.674-6.185,23.66-8.893l5.664,16.684C372.317,150.16,364.781,152.991,357.358,156.062z
		 M293.102,190.418l-9.787-14.648c7-4.681,14.16-9.137,21.457-13.357l8.81,15.257C306.617,181.698,299.782,185.951,293.102,190.418z
		 M236.785,236.644l-12.456-12.456c5.953-5.95,12.11-11.715,18.446-17.277l11.615,13.244
		C248.343,225.464,242.468,230.966,236.785,236.644z M191.364,291.693c-0.279,0.413-0.557,0.828-0.834,1.242l-14.647-9.788
		c0.291-0.435,0.582-0.87,0.874-1.304c4.417-6.54,9.043-12.956,13.861-19.23l13.976,10.724
		C199.993,279.326,195.579,285.45,191.364,291.693z M166.19,335.023l-15.802-7.792c3.73-7.55,7.71-14.986,11.927-22.286
		l15.257,8.809C173.548,320.72,169.749,327.817,166.19,335.023z M140.529,403.217l-17.018-4.56
		c2.176-8.14,4.617-16.212,7.317-24.194l16.684,5.663C144.934,387.744,142.605,395.448,140.529,403.217z M140.477,403.409
		c-1.87,7.011-3.534,14.074-4.984,21.171c-0.159,0.775-0.314,1.55-0.468,2.326l-17.277-3.437c0.161-0.816,0.325-1.631,0.491-2.445
		c1.52-7.435,3.264-14.832,5.222-22.175L140.477,403.409z M135.492,574.437c1.45,7.098,3.114,14.16,4.984,21.171l-17.017,4.56
		c-1.958-7.344-3.702-14.74-5.222-22.176c-0.166-0.813-0.33-1.629-0.491-2.445l17.277-3.436
		C135.178,572.886,135.333,573.662,135.492,574.437z M140.529,595.801c2.076,7.769,4.405,15.473,6.983,23.09l-16.684,5.664
		c-2.7-7.981-5.142-16.055-7.317-24.193L140.529,595.801z M177.572,685.264l-15.257,8.81c-4.217-7.3-8.196-14.736-11.927-22.287
		l15.802-7.792C169.749,671.201,173.548,678.299,177.572,685.264z M191.364,707.325c4.216,6.242,8.63,12.366,13.229,18.355
		l-13.976,10.724c-4.818-6.274-9.444-12.689-13.861-19.23c-0.292-0.434-0.583-0.869-0.874-1.304l14.647-9.788
		C190.807,706.497,191.084,706.912,191.364,707.325z M254.391,778.862l-11.615,13.245c-6.336-5.563-12.493-11.327-18.446-17.277
		l12.456-12.457C242.468,768.052,248.343,773.554,254.391,778.862z M313.581,821.347l-8.81,15.257
		c-7.297-4.22-14.457-8.676-21.457-13.356l9.787-14.648C299.782,813.066,306.617,817.32,313.581,821.347z M379.94,851.442
		l-5.664,16.683c-7.986-2.707-15.882-5.674-23.66-8.893l6.742-16.277C364.781,846.027,372.317,848.858,379.94,851.442z
		 M427.104,864.031c7.869,1.552,15.813,2.848,23.803,3.888l-2.299,17.462c-8.373-1.09-16.695-2.447-24.941-4.072L427.104,864.031z
		 M451.104,867.944c7.962,1.032,15.971,1.811,24.005,2.331l-1.151,17.574c-8.419-0.546-16.811-1.361-25.152-2.442L451.104,867.944z
		 M547.914,867.944l2.299,17.463c-8.341,1.081-16.732,1.896-25.15,2.442l-1.152-17.574
		C531.946,869.755,539.953,868.976,547.914,867.944z M548.113,867.919c7.991-1.04,15.933-2.336,23.804-3.888l3.437,17.277
		c-8.247,1.625-16.569,2.982-24.942,4.072L548.113,867.919z M641.662,842.955l6.742,16.278c-7.779,3.218-15.674,6.185-23.661,8.892
		l-5.663-16.683C626.703,848.858,634.239,846.027,641.662,842.955z M705.918,808.599l9.787,14.648
		c-7,4.681-14.161,9.137-21.459,13.356l-8.809-15.257C692.403,817.32,699.237,813.066,705.918,808.599z M762.233,762.373
		l12.457,12.457c-5.953,5.95-12.109,11.715-18.447,17.277l-11.613-13.245C750.676,773.554,756.551,768.052,762.233,762.373z
		 M807.656,707.325c0.278-0.413,0.555-0.828,0.833-1.243l14.647,9.788c-0.291,0.435-0.582,0.87-0.875,1.304
		c-4.416,6.541-9.041,12.956-13.86,19.23l-13.976-10.724C799.026,719.691,803.44,713.567,807.656,707.325z M832.83,663.995
		l15.801,7.792c-3.73,7.551-7.709,14.987-11.926,22.287l-15.258-8.81C825.471,678.299,829.27,671.201,832.83,663.995z
		 M858.49,595.801l17.018,4.561c-2.176,8.139-4.617,16.212-7.317,24.193l-16.684-5.664
		C854.084,611.273,856.414,603.569,858.49,595.801z M858.542,595.608c1.87-7.011,3.534-14.073,4.985-21.171
		c0.158-0.775,0.313-1.551,0.467-2.326l17.277,3.436c-0.162,0.816-0.325,1.632-0.492,2.445c-1.519,7.436-3.262,14.832-5.221,22.176
		L858.542,595.608z M867.92,450.906c-1.041-7.991-2.337-15.934-3.888-23.804l17.276-3.437c1.626,8.247,2.983,16.568,4.074,24.942
		L867.92,450.906z M868.126,374.275l-16.683,5.663c-2.585-7.623-5.416-15.158-8.487-22.582l16.277-6.743
		C862.451,358.392,865.418,366.288,868.126,374.275z M842.881,357.173c-0.327-0.788-0.656-1.576-0.988-2.361
		c-2.795-6.613-5.79-13.155-8.975-19.61l15.801-7.792c3.337,6.763,6.475,13.616,9.403,20.543c0.349,0.825,0.692,1.65,1.036,2.478
		L842.881,357.173z M821.348,313.58c-4.027-6.964-8.281-13.798-12.748-20.479l14.648-9.788c4.681,7,9.137,14.161,13.357,21.458
		L821.348,313.58z M792.239,242.925c5.557,6.336,10.908,12.854,16.041,19.531l-13.975,10.724c-4.9-6.372-10.008-12.593-15.311-18.64
		L792.239,242.925z M778.864,254.39c-5.309-6.048-10.811-11.923-16.489-17.605l12.456-12.456
		c5.951,5.953,11.715,12.109,17.277,18.446L778.864,254.39z M756.094,206.78l-11.615,13.244c-6.047-5.302-12.268-10.41-18.64-15.309
		l10.724-13.976C743.24,195.872,749.758,201.224,756.094,206.78z M725.682,204.593c-5.99-4.599-12.113-9.014-18.355-13.229
		c-0.414-0.279-0.828-0.557-1.244-0.834l9.789-14.648c0.434,0.291,0.869,0.582,1.303,0.875c6.541,4.417,12.957,9.042,19.23,13.861
		L725.682,204.593z M694.074,162.314l-8.809,15.257c-6.967-4.024-14.064-7.822-21.27-11.382l7.792-15.801
		C679.338,154.118,686.775,158.097,694.074,162.314z M663.817,166.101c-6.455-3.185-12.996-6.181-19.609-8.975
		c-0.785-0.332-1.572-0.661-2.361-0.987l6.742-16.278c0.828,0.343,1.654,0.688,2.479,1.036c6.928,2.928,13.78,6.066,20.543,9.403
		L663.817,166.101z M624.555,130.828l-5.664,16.683c-7.616-2.578-15.32-4.907-23.09-6.984l4.561-17.017
		C608.501,125.686,616.574,128.128,624.555,130.828z M595.61,140.476c-7.012-1.87-14.074-3.534-21.172-4.985
		c-0.774-0.158-1.551-0.314-2.326-0.467l3.438-17.277c0.814,0.161,1.631,0.325,2.444,0.491c7.435,1.52,14.831,3.263,22.175,5.222
		L595.61,140.476z M523.712,128.729c-8.017-0.516-16.06-0.777-24.103-0.779v-17.61c8.428,0.002,16.854,0.275,25.254,0.815
		L523.712,128.729z M499.41,127.95c-8.045,0.002-16.086,0.263-24.104,0.779l-1.151-17.574c8.399-0.54,16.826-0.813,25.255-0.815
		V127.95z M423.471,117.747l3.438,17.277c-0.777,0.153-1.553,0.309-2.326,0.467c-7.098,1.451-14.16,3.115-21.172,4.985
		l-4.561-17.017c7.344-1.959,14.742-3.702,22.176-5.222C421.84,118.072,422.655,117.908,423.471,117.747z M403.218,140.528
		c-7.769,2.077-15.474,4.406-23.091,6.984l-5.662-16.683c7.98-2.701,16.053-5.142,24.193-7.317L403.218,140.528z M350.431,139.861
		l6.742,16.278c-0.788,0.326-1.575,0.655-2.36,0.987c-6.613,2.794-13.155,5.79-19.611,8.975L327.41,150.3
		c6.762-3.337,13.615-6.475,20.543-9.403C348.778,140.548,349.604,140.203,350.431,139.861z M335.024,166.189
		c-7.206,3.56-14.303,7.358-21.27,11.382l-8.809-15.257c7.299-4.216,14.735-8.196,22.285-11.926L335.024,166.189z M283.149,175.881
		l9.787,14.648c-0.414,0.277-0.828,0.555-1.242,0.834c-6.242,4.215-12.366,8.63-18.355,13.229l-10.725-13.976
		c6.275-4.819,12.691-9.444,19.23-13.861C282.279,176.463,282.713,176.172,283.149,175.881z M273.18,204.715
		c-6.372,4.899-12.592,10.007-18.639,15.309l-11.615-13.244c6.336-5.556,12.854-10.908,19.53-16.041L273.18,204.715z
		 M224.189,224.329l12.456,12.456c-5.679,5.682-11.181,11.557-16.489,17.605l-13.244-11.615
		C212.474,236.438,218.239,230.282,224.189,224.329z M220.025,254.539c-5.303,6.047-10.41,12.268-15.31,18.64l-13.977-10.724
		c5.134-6.678,10.486-13.195,16.042-19.531L220.025,254.539z M190.419,293.101c-4.467,6.681-8.721,13.515-12.748,20.479
		l-15.257-8.809c4.22-7.297,8.676-14.458,13.356-21.458L190.419,293.101z M150.3,327.409l15.802,7.792
		c-3.186,6.456-6.181,12.997-8.976,19.61c-0.332,0.786-0.661,1.573-0.987,2.361l-16.277-6.743c0.343-0.827,0.688-1.653,1.035-2.478
		C143.824,341.025,146.963,334.172,150.3,327.409z M156.063,357.357c-3.071,7.423-5.902,14.958-8.486,22.582l-16.684-5.663
		c2.707-7.987,5.674-15.883,8.893-23.661L156.063,357.357z M117.709,423.666l17.277,3.437c-1.551,7.871-2.847,15.813-3.887,23.804
		l-17.463-2.299C114.727,440.234,116.084,431.912,117.709,423.666z M131.073,451.104c-1.032,7.961-1.81,15.97-2.331,24.004
		l-17.573-1.152c0.546-8.418,1.36-16.81,2.442-25.151L131.073,451.104z M127.95,499.409h-17.61
		c0.002-8.428,0.275-16.854,0.815-25.254l17.574,1.151C128.214,483.323,127.952,491.365,127.95,499.409z M128.73,523.711
		l-17.574,1.152c-0.54-8.4-0.813-16.826-0.815-25.255h17.61C127.952,507.652,128.214,515.694,128.73,523.711z M111.169,525.062
		l17.573-1.152c0.521,8.034,1.299,16.043,2.331,24.004l-17.462,2.299C112.53,541.872,111.715,533.48,111.169,525.062z
		 M131.1,548.111c1.04,7.991,2.336,15.934,3.887,23.805l-17.277,3.437c-1.625-8.247-2.982-16.569-4.072-24.942L131.1,548.111z
		 M130.893,624.742l16.684-5.662c2.584,7.623,5.415,15.158,8.486,22.581l-16.277,6.743
		C136.567,640.625,133.601,632.73,130.893,624.742z M156.139,641.845c0.326,0.788,0.655,1.575,0.987,2.361
		c2.795,6.613,5.79,13.154,8.976,19.609l-15.802,7.793c-3.337-6.764-6.476-13.616-9.403-20.543
		c-0.348-0.825-0.692-1.651-1.035-2.479L156.139,641.845z M177.671,685.437c4.027,6.965,8.28,13.799,12.748,20.479l-14.648,9.788
		c-4.681-7-9.137-14.161-13.356-21.459L177.671,685.437z M190.739,736.562l13.977-10.725c4.899,6.373,10.007,12.594,15.31,18.641
		l-13.244,11.615C201.225,749.758,195.872,743.24,190.739,736.562z M220.156,744.628c5.309,6.048,10.811,11.923,16.489,17.605
		l-12.456,12.456c-5.95-5.953-11.715-12.109-17.277-18.447L220.156,744.628z M242.926,792.238l11.615-13.244
		c6.047,5.303,12.267,10.41,18.639,15.309l-10.724,13.977C255.78,803.146,249.262,797.794,242.926,792.238z M273.338,794.426
		c5.989,4.599,12.113,9.014,18.355,13.229c0.414,0.278,0.828,0.556,1.242,0.834l-9.787,14.647c-0.436-0.291-0.87-0.582-1.305-0.875
		c-6.539-4.416-12.955-9.042-19.23-13.861L273.338,794.426z M304.946,836.704l8.809-15.257c6.967,4.023,14.063,7.822,21.27,11.382
		l-7.793,15.802C319.681,844.9,312.244,840.92,304.946,836.704z M335.201,832.917c6.456,3.185,12.998,6.181,19.611,8.976
		c0.785,0.332,1.572,0.66,2.36,0.987l-6.742,16.277c-0.827-0.343-1.653-0.688-2.478-1.036c-6.928-2.928-13.781-6.066-20.543-9.402
		L335.201,832.917z M374.465,868.189l5.662-16.683c7.617,2.577,15.322,4.907,23.091,6.983l-4.56,17.017
		C390.518,873.332,382.446,870.89,374.465,868.189z M403.41,858.541c7.012,1.871,14.073,3.535,21.172,4.985
		c0.773,0.158,1.549,0.314,2.326,0.468l-3.438,17.277c-0.816-0.162-1.631-0.325-2.445-0.492c-7.434-1.519-14.832-3.263-22.176-5.221
		L403.41,858.541z M475.307,870.289c8.018,0.516,16.059,0.777,24.104,0.779v17.61c-8.429-0.002-16.855-0.275-25.255-0.815
		L475.307,870.289z M499.61,871.068c8.043-0.002,16.086-0.264,24.103-0.779l1.151,17.574c-8.4,0.54-16.826,0.813-25.254,0.815
		V871.068z M575.549,881.271l-3.438-17.277c0.775-0.153,1.552-0.31,2.326-0.468c7.098-1.45,14.16-3.114,21.172-4.985l4.559,17.018
		c-7.344,1.958-14.74,3.702-22.175,5.221C577.18,880.946,576.364,881.109,575.549,881.271z M595.801,858.49
		c7.77-2.076,15.474-4.406,23.09-6.983l5.664,16.683c-7.98,2.701-16.054,5.143-24.193,7.317L595.801,858.49z M648.588,859.158
		l-6.742-16.278c0.789-0.327,1.576-0.655,2.361-0.987c6.613-2.795,13.154-5.791,19.609-8.976l7.793,15.802
		c-6.763,3.336-13.615,6.475-20.543,9.402C650.242,858.469,649.416,858.814,648.588,859.158z M663.996,832.829
		c7.205-3.56,14.303-7.358,21.27-11.382l8.809,15.257c-7.3,4.217-14.736,8.196-22.287,11.927L663.996,832.829z M715.87,823.136
		l-9.788-14.647c0.416-0.278,0.83-0.556,1.244-0.834c6.242-4.216,12.365-8.631,18.355-13.229l10.723,13.975
		c-6.273,4.819-12.689,9.445-19.23,13.861C716.74,822.554,716.305,822.845,715.87,823.136z M725.839,794.302
		c6.372-4.898,12.593-10.006,18.64-15.309l11.615,13.244c-6.336,5.556-12.854,10.908-19.531,16.041L725.839,794.302z
		 M774.83,774.689l-12.456-12.456c5.679-5.683,11.181-11.558,16.489-17.605l13.244,11.615
		C786.545,762.58,780.781,768.736,774.83,774.689z M778.994,744.478c5.303-6.047,10.41-12.268,15.311-18.641l13.975,10.725
		c-5.133,6.678-10.484,13.195-16.041,19.531L778.994,744.478z M808.6,705.917c4.467-6.681,8.721-13.515,12.748-20.479l15.258,8.809
		c-4.221,7.298-8.676,14.459-13.357,21.459L808.6,705.917z M848.719,671.609l-15.801-7.793c3.185-6.455,6.18-12.996,8.975-19.609
		c0.332-0.786,0.661-1.573,0.988-2.361l16.277,6.742c-0.344,0.827-0.688,1.653-1.036,2.479
		C855.195,657.993,852.056,664.845,848.719,671.609z M842.956,641.661c3.071-7.423,5.902-14.958,8.487-22.581l16.683,5.662
		c-2.708,7.988-5.675,15.883-8.893,23.662L842.956,641.661z M881.309,575.352l-17.276-3.437c1.551-7.871,2.847-15.813,3.888-23.805
		l17.463,2.299C884.291,558.783,882.935,567.105,881.309,575.352z M867.946,547.914c1.032-7.961,1.811-15.97,2.331-24.004
		l17.573,1.152c-0.545,8.418-1.36,16.81-2.441,25.15L867.946,547.914z"/>
</symbol>
</svg>
