<?xml version="1.0" encoding="utf-8"?>
<!-- Generator: Adobe Illustrator 15.0.0, SVG Export Plug-In . SVG Version: 6.00 Build 0)  -->
<!DOCTYPE svg PUBLIC "-//W3C//DTD SVG 1.1//EN" "http://www.w3.org/Graphics/SVG/1.1/DTD/svg11.dtd">
<svg version="1.1" id="zzz" xmlns="http://www.w3.org/2000/svg" xmlns:xlink="http://www.w3.org/1999/xlink" x="0px" y="0px"
	 width="1000px" height="1000px" viewBox="0 0 1000 1000" enable-background="new 0 0 1000 1000" xml:space="preserve">
<g id="handsnail">
	<g>
		
			<radialGradient id="SVGID_1_" cx="301.3372" cy="597.7205" r="27.0028" gradientTransform="matrix(1 0 0 -1 202.3999 1080.0991)" gradientUnits="userSpaceOnUse">
			<stop  offset="0" style="stop-color:#FFF8EB"/>
			<stop  offset="1" style="stop-color:#493827"/>
		</radialGradient>
		<circle fill="url(#SVGID_1_)" cx="512.419" cy="486.6" r="17.725"/>
		
			<radialGradient id="SVGID_2_" cx="-917.8582" cy="-305.1799" r="4.922" gradientTransform="matrix(-0.7071 -0.7071 -0.7071 0.7071 -351.8167 55.0387)" gradientUnits="userSpaceOnUse">
			<stop  offset="0" style="stop-color:#FFF8EB"/>
			<stop  offset="1" style="stop-color:#493827"/>
		</radialGradient>
		<circle fill="url(#SVGID_2_)" cx="512.418" cy="486.6" r="3.231"/>
		
			<radialGradient id="SVGID_3_" cx="308.72" cy="594.1306" r="4.0416" gradientTransform="matrix(1 0 0 -1 202.3999 1080.0991)" gradientUnits="userSpaceOnUse">
			<stop  offset="0" style="stop-color:#FFFEFC"/>
			<stop  offset="1" style="stop-color:#A19A91"/>
		</radialGradient>
		<circle fill="url(#SVGID_3_)" cx="512.419" cy="486.6" r="2.652"/>
	</g>
</g>
<g id="timegrid">
	<path fill="#221E1F" d="M751.286,241.85C686.774,177.337,601,141.809,509.766,141.809c-91.235,0-177.008,35.527-241.52,100.041
		c-64.514,64.512-100.041,150.285-100.041,241.52c0,91.235,35.527,177.009,100.041,241.521
		c64.512,64.512,150.284,100.04,241.52,100.04c91.234,0,177.008-35.528,241.521-100.04c64.513-64.513,100.04-150.286,100.04-241.521
		C851.326,392.135,815.799,306.361,751.286,241.85z M316.921,747.16l-7.904,10.883c-9.07-6.647-17.803-13.729-26.162-21.223
		l9.021-10.018C299.933,734.033,308.289,740.823,316.921,747.16z M318.481,748.29c8.354,6.061,16.958,11.699,25.789,16.905
		l-6.721,11.641c-9.283-5.469-18.284-11.361-26.979-17.658L318.481,748.29z M348.438,767.628c8.952,5.1,18.13,9.751,27.501,13.961
		l-5.479,12.308c-9.838-4.431-19.424-9.32-28.739-14.632L348.438,767.628z M377.692,782.384c9.847,4.354,19.909,8.206,30.152,11.556
		l-4.17,12.841c-10.729-3.528-21.224-7.573-31.453-12.11L377.692,782.384z M409.681,794.52c10.229,3.278,20.641,6.05,31.2,8.305
		l-2.821,13.281c-11.062-2.382-21.92-5.301-32.556-8.731L409.681,794.52z M442.765,803.222c10.496,2.177,21.137,3.843,31.893,4.983
		l-1.424,13.561c-11.27-1.208-22.377-2.965-33.294-5.25L442.765,803.222z M476.571,808.418c10.169,1.02,20.439,1.56,30.785,1.634
		V823.7c-10.862-0.075-21.609-0.643-32.211-1.719L476.571,808.418z M512.181,810.052c10.344-0.074,20.614-0.614,30.782-1.634
		l1.427,13.563c-10.601,1.075-21.349,1.644-32.209,1.719V810.052z M544.877,808.206c10.756-1.143,21.396-2.808,31.893-4.983
		l2.827,13.293c-10.916,2.285-22.023,4.042-33.294,5.251L544.877,808.206z M578.653,802.824c10.561-2.255,20.97-5.025,31.201-8.305
		l4.178,12.854c-10.635,3.432-21.495,6.351-32.555,8.731L578.653,802.824z M611.688,793.938
		c10.244-3.351,20.307-7.203,30.154-11.557l5.471,12.284c-10.229,4.538-20.724,8.583-31.451,12.111L611.688,793.938z
		 M643.596,781.589c9.372-4.21,18.551-8.862,27.503-13.962l6.718,11.636c-9.315,5.313-18.902,10.202-28.74,14.633L643.596,781.589z
		 M675.266,765.194c8.83-5.206,17.434-10.846,25.787-16.905l7.911,10.887c-8.693,6.297-17.695,12.189-26.979,17.657L675.266,765.194
		z M702.612,747.161c8.631-6.339,16.989-13.129,25.048-20.358l9.021,10.017c-8.36,7.492-17.092,14.574-26.163,21.224
		L702.612,747.161z M509.767,808.882c-179.487,0-325.511-146.024-325.511-325.513s146.022-325.511,325.511-325.511
		s325.512,146.022,325.512,325.511S689.254,808.882,509.767,808.882z M245.976,290.523l-10.879-7.907
		c6.646-9.069,13.729-17.801,21.219-26.159l10.02,9.021C259.104,273.534,252.313,281.893,245.976,290.523z M244.847,292.084
		c-6.059,8.354-11.699,16.957-16.905,25.787l-11.64-6.721c5.469-9.281,11.361-18.283,17.658-26.978L244.847,292.084z
		 M225.511,322.038c-5.1,8.952-9.752,18.13-13.963,27.501l-12.306-5.479c4.431-9.837,9.319-19.423,14.632-28.739L225.511,322.038z
		 M210.754,351.294c-4.354,9.848-8.206,19.909-11.557,30.151l-12.84-4.173c3.527-10.728,7.572-21.219,12.109-31.448L210.754,351.294
		z M198.616,383.283c-3.277,10.23-6.05,20.639-8.306,31.198l-13.279-2.823c2.382-11.059,5.301-21.918,8.729-32.552L198.616,383.283z
		 M189.914,416.367c-2.178,10.496-3.844,21.137-4.984,31.893l-13.559-1.428c1.208-11.269,2.965-22.375,5.25-33.29L189.914,416.367z
		 M184.719,450.175c-1.021,10.168-1.56,20.438-1.634,30.782h-13.648c0.076-10.86,0.644-21.607,1.719-32.209L184.719,450.175z
		 M183.085,485.782c0.074,10.346,0.614,20.614,1.634,30.782l-13.563,1.427c-1.075-10.601-1.643-21.348-1.719-32.209H183.085
		L183.085,485.782z M184.93,518.48c1.142,10.756,2.808,21.395,4.984,31.891l-13.293,2.827c-2.285-10.916-4.042-22.022-5.25-33.293
		L184.93,518.48z M190.312,552.258c2.256,10.56,5.026,20.969,8.306,31.198l-12.854,4.179c-3.431-10.636-6.35-21.495-8.729-32.555
		L190.312,552.258z M199.198,585.294c3.351,10.241,7.202,20.305,11.557,30.15l-12.285,5.472c-4.538-10.229-8.583-20.724-12.11-31.45
		L199.198,585.294z M211.548,617.199c4.211,9.371,8.863,18.549,13.962,27.501l-11.636,6.718
		c-5.313-9.315-10.201-18.901-14.633-28.738L211.548,617.199z M227.941,648.868c5.206,8.83,10.847,17.434,16.905,25.787
		l-10.887,7.911c-6.296-8.694-12.189-17.695-17.658-26.979L227.941,648.868z M245.976,676.217
		c6.338,8.631,13.128,16.987,20.357,25.046l-10.017,9.021c-7.491-8.358-14.573-17.092-21.223-26.162L245.976,676.217z
		 M702.613,219.578l7.905-10.88c9.071,6.647,17.803,13.729,26.161,21.221l-9.021,10.019
		C719.603,232.707,711.243,225.916,702.613,219.578z M701.053,218.449c-8.354-6.059-16.957-11.699-25.788-16.905l6.721-11.64
		c9.282,5.469,18.284,11.361,26.979,17.658L701.053,218.449z M671.099,199.113c-8.952-5.1-18.131-9.752-27.502-13.963l5.479-12.306
		c9.837,4.431,19.423,9.319,28.739,14.632L671.099,199.113z M641.843,184.356c-9.848-4.354-19.909-8.206-30.152-11.557l4.173-12.84
		c10.728,3.527,21.221,7.572,31.448,12.11L641.843,184.356z M609.854,172.219c-10.231-3.277-20.641-6.05-31.2-8.306l2.824-13.278
		c11.059,2.381,21.918,5.3,32.552,8.729L609.854,172.219z M576.77,163.517c-10.496-2.178-21.136-3.844-31.892-4.984l1.427-13.559
		c11.269,1.208,22.375,2.965,33.29,5.25L576.77,163.517z M542.963,158.321c-10.168-1.02-20.438-1.56-30.783-1.634v-13.648
		c10.861,0.076,21.607,0.644,32.209,1.719L542.963,158.321z M507.356,156.688c-10.346,0.074-20.616,0.614-30.785,1.634
		l-1.423-13.564c10.6-1.074,21.347-1.642,32.208-1.718V156.688z M474.656,158.532c-10.756,1.142-21.396,2.808-31.893,4.984
		l-2.822-13.294c10.915-2.285,22.021-4.041,33.29-5.249L474.656,158.532z M440.88,163.914c-10.56,2.255-20.97,5.026-31.199,8.306
		l-4.174-12.855c10.633-3.43,21.491-6.348,32.551-8.729L440.88,163.914z M407.845,172.8c-10.243,3.352-20.307,7.202-30.152,11.557
		l-5.468-12.285c10.229-4.538,20.722-8.582,31.448-12.11L407.845,172.8z M375.938,185.15c-9.371,4.21-18.549,8.862-27.501,13.961
		l-6.718-11.636c9.315-5.313,18.902-10.201,28.738-14.632L375.938,185.15z M344.271,201.543
		c-8.831,5.206-17.434,10.847-25.789,16.906l-7.908-10.889c8.693-6.296,17.695-12.189,26.978-17.657L344.271,201.543z
		 M316.921,219.578c-8.632,6.338-16.988,13.127-25.046,20.357l-9.02-10.021c8.358-7.49,17.09-14.571,26.16-21.219L316.921,219.578z
		 M829.618,416.367l13.294-2.826c2.285,10.916,4.041,22.023,5.25,33.294l-13.56,1.426
		C833.461,437.505,831.796,426.863,829.618,416.367z M829.222,414.482c-2.255-10.56-5.026-20.969-8.306-31.199l12.854-4.177
		c3.431,10.634,6.35,21.494,8.729,32.554L829.222,414.482z M820.336,381.447c-3.351-10.244-7.203-20.306-11.557-30.152l12.285-5.471
		c4.537,10.23,8.583,20.724,12.11,31.451L820.336,381.447z M807.985,349.54c-4.21-9.371-8.862-18.55-13.962-27.501l11.637-6.719
		c5.313,9.316,10.201,18.903,14.633,28.74L807.985,349.54z M791.593,317.872c-5.206-8.831-10.848-17.434-16.906-25.788l10.888-7.91
		c6.297,8.694,12.19,17.695,17.658,26.979L791.593,317.872z M773.558,290.523c-6.338-8.631-13.127-16.988-20.357-25.047l10.02-9.021
		c7.491,8.359,14.573,17.092,21.22,26.162L773.558,290.523z M773.558,676.216l10.883,7.902
		c-6.647,9.071-13.729,17.805-21.223,26.164l-10.02-9.02C760.43,693.205,767.22,684.847,773.558,676.216z M774.687,674.656
		c6.06-8.354,11.7-16.959,16.907-25.791l11.64,6.722c-5.469,9.282-11.363,18.284-17.659,26.979L774.687,674.656z M794.024,644.698
		c5.099-8.951,9.751-18.129,13.961-27.499l12.309,5.479c-4.432,9.837-9.32,19.423-14.633,28.738L794.024,644.698z M808.779,615.445
		c4.354-9.848,8.206-19.91,11.558-30.152l12.84,4.171c-3.527,10.728-7.573,21.222-12.111,31.452L808.779,615.445z M820.916,583.457
		c3.278-10.23,6.051-20.641,8.306-31.199l13.28,2.82c-2.381,11.061-5.301,21.92-8.73,32.556L820.916,583.457z M829.618,550.373
		c2.178-10.495,3.843-21.137,4.984-31.893l13.56,1.424c-1.209,11.271-2.965,22.377-5.25,33.294L829.618,550.373z M834.814,516.566
		c1.021-10.169,1.56-20.439,1.634-30.785h13.649c-0.076,10.862-0.645,21.61-1.72,32.211L834.814,516.566z M836.448,480.957
		c-0.074-10.345-0.613-20.614-1.634-30.782l13.564-1.427c1.075,10.601,1.643,21.349,1.719,32.209H836.448L836.448,480.957z
		 M761.939,255.017l-10.019,9.021c-3.604-3.971-7.316-7.868-11.136-11.688c-3.817-3.818-7.716-7.529-11.687-11.135l9.021-10.019
		C746.445,238.742,754.395,246.692,761.939,255.017z M281.414,231.196l9.021,10.019c-3.971,3.605-7.869,7.316-11.688,11.136
		c-3.819,3.818-7.529,7.717-11.135,11.687l-10.018-9.021C265.141,246.69,273.091,238.741,281.414,231.196z M257.595,711.723
		l10.018-9.021c3.605,3.972,7.316,7.868,11.136,11.688c3.818,3.819,7.717,7.529,11.688,11.135l-9.02,10.021
		C273.091,727.998,265.14,720.048,257.595,711.723z M738.119,735.541l-9.021-10.018c3.971-3.604,7.868-7.314,11.688-11.135
		c3.818-3.818,7.53-7.717,11.136-11.688l10.021,9.021C754.396,720.046,746.445,727.996,738.119,735.541z"/>
</g>
<g id="twelve">
	<path fill="#221E1F" d="M529.079,168.284h-0.831h-3.353h-0.832h-5.084h-5.311h-4.184h-2.296v1.129h2.296h1.548l-7.098,27.883
		l-3.27-27.883h3.807v-1.129h-3.939h-11.227h-6.667v1.129h6.799l6.813,58.078l-7.806,30.664h-7.269v1.129h8.093l0.05,0.013
		l0.003-0.013h5.951v-1.129h-5.664l7.007-27.53l3.229,27.53h-2.703v1.129h12.341h9.491h5.086h5.016h14.578v-1.129h-4.184v-88.741
		h4.184v-1.129h-4.184L529.079,168.284L529.079,168.284z M513.67,258.154h-2.595l-6.771-57.725l7.894-31.018h1.472V258.154z
		 M528.247,258.154h-3.352v-88.741h3.352V258.154z"/>
</g>
<g id="eleven">
	<path fill="#221E1F" d="M395.561,294.223l0.475-88.74l8.403,0.045l0.006-1.129l-8.403-0.044l0,0l-9.338-0.05l-6.07-0.033
		l-2.296-0.012l-0.007,1.129l2.296,0.012l0,0l1.547,0.008l-7.246,27.845l-3.121-27.899l3.807,0.021l0.006-1.129l-21.833-0.117
		l-0.006,1.128l6.799,0.037l6.5,58.112l-7.968,30.622l-7.269-0.039l-0.006,1.128l8.092,0.043l0.05,0.013l0.003-0.013l5.951,0.032
		l0.007-1.128l-5.665-0.03l7.155-27.494l3.082,27.548l-2.703-0.015l-0.005,1.128l12.34,0.066l21.625,0.116l0.006-1.129
		L395.561,294.223z M381.74,294.149l-6.461-57.761l8.061-30.974l1.47,0.008l-0.475,88.74L381.74,294.149z"/>
</g>
<g id="ten">
	<polygon fill="#221E1F" points="266.041,303.93 273.66,361.907 266.281,392.677 259.014,392.778 259.03,393.906 267.121,393.794 
		267.172,393.806 267.175,393.793 273.126,393.711 273.111,392.583 267.446,392.661 274.071,365.035 277.682,392.518 
		274.979,392.556 274.996,393.684 296.826,393.381 296.81,392.252 288.907,392.362 281.335,334.736 288.797,303.614 
		297.552,303.492 297.536,302.363 284.94,302.539 284.957,303.667 287.632,303.63 280.924,331.609 277.267,303.775 281.073,303.722 
		281.058,302.593 259.227,302.896 259.242,304.025 	"/>
</g>
<g id="nine">
	<path fill="#221E1F" d="M224.127,528.195l-8.146,0.006l0.001,1.129l13.874-0.011v0.037l8.094-0.006l0.051,0.013l0.003-0.013
		l5.951-0.005v-1.128l-5.665,0.004l6.983-27.536l3.251,27.527l-2.703,0.003l0.003,1.127l21.831-0.019l-0.001-1.129l-7.903,0.008
		l-6.817-57.72l7.869-31.023l7.674-0.007v-1.129l-12.646,0.011v1.129l3.808-0.003l-7.075,27.891l-3.295-27.895l2.568-0.002
		l-0.001-1.129l-16.558,0.016v-0.021l-11.227,0.01l0,0l-8.146,0.008l0.002,1.128l8.146-0.006L224.127,528.195z M244.905,497.552
		l-7.779,30.67l-1.771,0.002l-0.074-88.754l2.764-0.003L244.905,497.552z"/>
</g>
<g id="eight">
	<path fill="#221E1F" d="M265.747,571.805l1.4,0.012l-0.717,88.734l-4.183-0.033l-0.01,1.13l15.091,0.122l0.319,0.003l32.527,0.263
		l0.005-1.13l-5.358-0.044l0.716-88.735l6.073,0.049l0.007-1.128l-19.751-0.16v-0.041l-11.228-0.091v0.041l-17.666-0.144
		l-0.008,1.13l1.644,0.015l-4.99,42.574l-5.686-42.661l3.599,0.028l0.008-1.13l-20.703-0.167l-0.008,1.13l5.883,0.047l12.642,89.974
		L265.747,571.805z M291.857,572.015l2.455,0.02l-0.716,88.736l-2.456-0.02L291.857,572.015z M280.631,571.926l-0.716,88.734
		l-2.257-0.018l0.716-88.736L280.631,571.926z"/>
</g>
<g id="seven">
	<path fill="#221E1F" d="M357.579,679.881l1.401,0.004l-0.278,88.738l-4.184-0.014l-0.003,1.13l18.956,0.06v0.125l11.227,0.035
		v-0.124l6.36,0.021l0.001-1.13l-6.358-0.021l0.278-88.737l6.798,0.021l0.002-1.129l-36.978-0.116l-0.002,1.131l1.645,0.006
		l-4.781,42.599l-5.896-42.633l3.598,0.011l0.003-1.129l-20.704-0.065l-0.003,1.13l5.885,0.02l13.085,89.909L357.579,679.881z
		 M373.754,679.931l-0.279,88.738l-3.545-0.013l0.277-88.737L373.754,679.931z"/>
</g>
<g id="six">
	<polygon fill="#221E1F" points="511.57,803.274 521.238,713.405 522.639,713.405 522.639,802.146 518.454,802.146 518.454,803.274 
		522.639,803.274 533.865,803.274 538.049,803.274 538.049,802.146 533.865,802.146 533.865,713.405 538.049,713.405 
		538.049,712.276 518.454,712.276 518.454,713.405 520.102,713.405 515.452,756.021 509.424,713.405 513.021,713.405 
		513.021,712.276 493.428,712.276 493.428,713.405 498.201,713.405 	"/>
</g>
<g id="five">
	<polygon fill="#221E1F" points="646.689,691.773 664.041,781.358 673.936,691.307 683.551,691.141 683.531,690.013 
		670.625,690.234 670.645,691.362 672.592,691.329 667.823,734.032 659.963,691.547 662.301,691.507 662.281,690.378 
		641.627,690.73 641.646,691.86 	"/>
</g>
<g id="four">
	<path fill="#221E1F" d="M778.745,576.989l0.005-1.131l-21.212-0.074l-7.284-0.024l-3.326-0.013l-9.521-0.034v0.001l-1.617-0.007
		l0,0l-11.227-0.039l-5.18-0.02l-0.002,1.129l5.178,0.02l-0.318,88.739l-5.178-0.02l-0.004,1.131l29.668,0.105l29.697,0.104
		l0.004-1.128l-4.424-0.017l0.315-88.739L778.745,576.989z M735.469,665.576l0.313-88.739l1.619,0.006l-0.315,88.739
		L735.469,665.576z M748.918,665.625l-0.604-0.003l0.314-88.74l0.418,0.001v0.001l1.2,0.005l-0.315,88.74L748.918,665.625z
		 M762.779,665.674l-1.621-0.006l0.316-88.739l1.619,0.006L762.779,665.674z"/>
</g>
<g id="three">
	<path fill="#221E1F" d="M811.672,442.229V441.1h-30.627h-5.015h-15.516v1.129h5.119v88.741h-5.119v1.129h5.119h10.396h0.83h3.353
		h0.832h10.395h2.869h11.227h6.138v-1.129h-6.138v-88.741H811.672L811.672,442.229z M776.861,530.971V442.23h3.353v88.741H776.861z
		 M794.309,530.971h-2.869V442.23h2.869V530.971z"/>
</g>
<g id="two">
	<path fill="#221E1F" d="M747.166,396.1l22.469,0.208l0.01-1.128l-7.059-0.065l0.827-88.738l6.416,0.061l0.013-1.129l-6.416-0.061
		l-10.396-0.097l0,0l-9.795-0.092l-5.613-0.053l-2.903-0.026l-3.574-0.034l-0.01,1.128l2.295,0.021l3.459,0.031l0.723,0.008
		l-0.828,88.737l-6.018-0.056l-0.01,1.129L747.166,396.1L747.166,396.1z M748.836,306.242l3.352,0.03l-0.828,88.737l-3.352-0.031
		L748.836,306.242z"/>
</g>
<g id="one">
	<polygon fill="#221E1F" points="660.823,295.704 656.641,295.693 656.87,206.952 661.053,206.963 661.055,205.834 656.872,205.823 
		656.872,205.823 647.613,205.799 641.465,205.783 641.459,206.913 645.645,206.923 645.413,295.664 641.232,295.652 
		641.229,296.781 660.82,296.833 	"/>
</g>
</svg>
